M48
; DRILL file {KiCad 9.0.0} date 2025-03-29T15:55:32-0700
; FORMAT={-:-/ absolute / metric / decimal}
; #@! TF.CreationDate,2025-03-29T15:55:32-07:00
; #@! TF.GenerationSoftware,Kicad,Pcbnew,9.0.0
; #@! TF.FileFunction,Plated,1,2,PTH
FMAT,2
METRIC
; #@! TA.AperFunction,Plated,PTH,ComponentDrill
T1C0.700
; #@! TA.AperFunction,Plated,PTH,ComponentDrill
T2C0.750
; #@! TA.AperFunction,Plated,PTH,ComponentDrill
T3C0.800
; #@! TA.AperFunction,Plated,PTH,ComponentDrill
T4C0.900
; #@! TA.AperFunction,Plated,PTH,ComponentDrill
T5C1.000
%
G90
G05
T1
X122.479Y-113.563
X122.479Y-121.183
X123.954Y-93.904
X125.425Y-122.428
X127.533Y-97.714
X127.533Y-105.334
X128.27Y-136.195
X128.27Y-143.815
X128.905Y-111.582
X131.574Y-93.904
X131.851Y-129.896
X131.851Y-133.629
X133.045Y-122.428
X136.525Y-111.582
X139.471Y-129.896
X139.471Y-133.629
T2
X125.273Y-115.367
X127.127Y-108.026
X131.216Y-104.47
X132.893Y-115.367
X134.747Y-108.026
X138.836Y-104.47
T3
X124.054Y-99.619
X124.054Y-102.119
X124.486Y-129.896
X126.986Y-129.896
X129.433Y-125.73
X131.933Y-125.73
X134.671Y-99.456
X134.671Y-101.956
X136.576Y-93.949
X136.576Y-96.449
X137.185Y-137.439
X137.185Y-139.939
X140.106Y-109.088
X140.106Y-111.588
X141.173Y-117.409
X141.173Y-119.949
X141.173Y-122.489
X141.173Y-125.029
X142.418Y-137.389
X142.418Y-139.889
X146.837Y-102.052
X146.837Y-104.552
X148.793Y-117.409
X148.793Y-119.949
X148.793Y-122.489
X148.793Y-125.029
T4
X142.494Y-133.579
X150.114Y-133.579
T5
X122.301Y-89.941
X122.657Y-149.377
X124.841Y-89.941
X125.197Y-149.377
X127.381Y-89.941
X133.02Y-149.403
X134.412Y-89.941
X135.56Y-149.403
X136.952Y-89.941
X139.492Y-89.941
X146.522Y-89.941
X149.062Y-89.941
X151.602Y-89.941
M30
