  0
SECTION
  2
HEADER
  9
$ANGBASE
  50
0.0
  9
$ANGDIR
  70
1
  9
$MEASUREMENT
  70
1
  0
ENDSEC
  0
SECTION
  2
TABLES
  0
TABLE
  2
LTYPE
  70
4
  0
LTYPE
  5
40F
  2
CONTINUOUS
  70
0
  3
Solid line
  72
65
  73
0
  40
0.0
  0
LTYPE
  5
410
  2
DASHDOT
 70
0
  3
Dash Dot ____ _ ____ _
 72
65
 73
4
 40
2.0
 49
1.25
 49
-0.25
 49
0.25
 49
-0.25
  0
LTYPE
  5
411
  2
DASHED
 70
0
  3
Dashed __ __ __ __ __
 72
65
 73
2
 40
0.75
 49
0.5
 49
-0.25
  0
LTYPE
  5
43B
  2
DOTTED
 70
0
  3
Dotted .  .  .  .
 72
65
 73
2
 40
0.2
 49
0.0
 49
-0.2
  0
ENDTAB
  0
TABLE
  2
STYLE
  70
4
  0
STYLE
  2
KICAD
  70
0
  40
0
  41
1
  42
1
  50
0
  71
0
  3
isocp.shx
  0
STYLE
  2
KICADB
  70
0
  40
0
  41
1
  42
1
  50
0
  71
0
  3
isocp.shx
  0
STYLE
  2
KICADI
  70
0
  40
0
  41
1
  42
1
  50
15
  71
0
  3
isocp.shx
  0
STYLE
  2
KICADBI
  70
0
  40
0
  41
1
  42
1
  50
15
  71
0
  3
isocp.shx
  0
ENDTAB
  0
TABLE
  2
LAYER
  70
1
  0
LAYER
  2
BLACK
  70
0
  62
7
  6
CONTINUOUS
  0
ENDTAB
  0
ENDSEC
  0
SECTION
  2
ENTITIES
0
LINE
8
BLACK
6
CONTINUOUS
10
117.3156429999999943
20
-84.8105999999999938
11
157.3156429999999943
21
-84.8105999999999938
0
LINE
8
BLACK
6
CONTINUOUS
10
157.3156429999999943
20
-84.8105999999999938
11
157.3156429999999943
21
-155.5472000000000037
0
LINE
8
BLACK
6
CONTINUOUS
10
157.3156429999999943
20
-155.5472000000000037
11
117.3156429999999943
21
-155.5472000000000037
0
LINE
8
BLACK
6
CONTINUOUS
10
117.3156429999999943
20
-155.5472000000000037
11
117.3156429999999943
21
-84.8105999999999938
0
LINE
8
BLACK
6
CONTINUOUS
10
119.8984109999999959
20
-158.6870380000000011
11
119.8984109999999959
21
-156.6870380000000011
0
LINE
8
BLACK
6
CONTINUOUS
10
119.8984109999999959
20
-156.6870380000000011
11
120.3746009999999984
21
-156.6870380000000011
0
LINE
8
BLACK
6
CONTINUOUS
10
120.3746009999999984
20
-156.6870380000000011
11
120.6603159999999946
21
-156.782275999999996
0
LINE
8
BLACK
6
CONTINUOUS
10
120.6603159999999946
20
-156.782275999999996
11
120.8507919999999984
21
-156.9727519999999856
0
LINE
8
BLACK
6
CONTINUOUS
10
120.8507919999999984
20
-156.9727519999999856
11
120.9460299999999933
21
-157.1632280000000037
0
LINE
8
BLACK
6
CONTINUOUS
10
120.9460299999999933
20
-157.1632280000000037
11
121.0412679999999881
21
-157.544179999999983
0
LINE
8
BLACK
6
CONTINUOUS
10
121.0412679999999881
20
-157.544179999999983
11
121.0412679999999881
21
-157.8298949999999934
0
LINE
8
BLACK
6
CONTINUOUS
10
121.0412679999999881
20
-157.8298949999999934
11
120.9460299999999933
21
-158.2108470000000011
0
LINE
8
BLACK
6
CONTINUOUS
10
120.9460299999999933
20
-158.2108470000000011
11
120.8507919999999984
21
-158.4013229999999908
0
LINE
8
BLACK
6
CONTINUOUS
10
120.8507919999999984
20
-158.4013229999999908
11
120.6603159999999946
21
-158.5918000000000063
0
LINE
8
BLACK
6
CONTINUOUS
10
120.6603159999999946
20
-158.5918000000000063
11
120.3746009999999984
21
-158.6870380000000011
0
LINE
8
BLACK
6
CONTINUOUS
10
120.3746009999999984
20
-158.6870380000000011
11
119.8984109999999959
21
-158.6870380000000011
0
LINE
8
BLACK
6
CONTINUOUS
10
121.8984109999999959
20
-158.6870380000000011
11
121.8984109999999959
21
-157.3537039999999934
0
LINE
8
BLACK
6
CONTINUOUS
10
121.8984109999999959
20
-157.7346569999999986
11
121.9936489999999907
21
-157.544179999999983
0
LINE
8
BLACK
6
CONTINUOUS
10
121.9936489999999907
20
-157.544179999999983
11
122.0888869999999997
21
-157.4489419999999882
0
LINE
8
BLACK
6
CONTINUOUS
10
122.0888869999999997
20
-157.4489419999999882
11
122.2793629999999894
21
-157.3537039999999934
0
LINE
8
BLACK
6
CONTINUOUS
10
122.2793629999999894
20
-157.3537039999999934
11
122.4698399999999907
21
-157.3537039999999934
0
LINE
8
BLACK
6
CONTINUOUS
10
123.1365059999999971
20
-158.6870380000000011
11
123.1365059999999971
21
-157.3537039999999934
0
LINE
8
BLACK
6
CONTINUOUS
10
123.1365059999999971
20
-156.6870380000000011
11
123.0412679999999881
21
-156.782275999999996
0
LINE
8
BLACK
6
CONTINUOUS
10
123.0412679999999881
20
-156.782275999999996
11
123.1365059999999971
21
-156.8775139999999908
0
LINE
8
BLACK
6
CONTINUOUS
10
123.1365059999999971
20
-156.8775139999999908
11
123.231743999999992
21
-156.782275999999996
0
LINE
8
BLACK
6
CONTINUOUS
10
123.231743999999992
20
-156.782275999999996
11
123.1365059999999971
21
-156.6870380000000011
0
LINE
8
BLACK
6
CONTINUOUS
10
123.1365059999999971
20
-156.6870380000000011
11
123.1365059999999971
21
-156.8775139999999908
0
LINE
8
BLACK
6
CONTINUOUS
10
124.3746009999999984
20
-158.6870380000000011
11
124.1841249999999945
21
-158.5918000000000063
0
LINE
8
BLACK
6
CONTINUOUS
10
124.1841249999999945
20
-158.5918000000000063
11
124.0888869999999997
21
-158.4013229999999908
0
LINE
8
BLACK
6
CONTINUOUS
10
124.0888869999999997
20
-158.4013229999999908
11
124.0888869999999997
21
-156.6870380000000011
0
LINE
8
BLACK
6
CONTINUOUS
10
125.4222199999999958
20
-158.6870380000000011
11
125.231743999999992
21
-158.5918000000000063
0
LINE
8
BLACK
6
CONTINUOUS
10
125.231743999999992
20
-158.5918000000000063
11
125.1365059999999971
21
-158.4013229999999908
0
LINE
8
BLACK
6
CONTINUOUS
10
125.1365059999999971
20
-158.4013229999999908
11
125.1365059999999971
21
-156.6870380000000011
0
LINE
8
BLACK
6
CONTINUOUS
10
127.707934999999992
20
-158.6870380000000011
11
127.707934999999992
21
-156.6870380000000011
0
LINE
8
BLACK
6
CONTINUOUS
10
127.707934999999992
20
-156.6870380000000011
11
128.3746019999999817
21
-158.1156090000000063
0
LINE
8
BLACK
6
CONTINUOUS
10
128.3746019999999817
20
-158.1156090000000063
11
129.0412680000000023
21
-156.6870380000000011
0
LINE
8
BLACK
6
CONTINUOUS
10
129.0412680000000023
20
-156.6870380000000011
11
129.0412680000000023
21
-158.6870380000000011
0
LINE
8
BLACK
6
CONTINUOUS
10
130.8507919999999842
20
-158.6870380000000011
11
130.8507919999999842
21
-157.6394190000000037
0
LINE
8
BLACK
6
CONTINUOUS
10
130.8507919999999842
20
-157.6394190000000037
11
130.7555539999999894
21
-157.4489419999999882
0
LINE
8
BLACK
6
CONTINUOUS
10
130.7555539999999894
20
-157.4489419999999882
11
130.5650779999999997
21
-157.3537039999999934
0
LINE
8
BLACK
6
CONTINUOUS
10
130.5650779999999997
20
-157.3537039999999934
11
130.1841249999999945
21
-157.3537039999999934
0
LINE
8
BLACK
6
CONTINUOUS
10
130.1841249999999945
20
-157.3537039999999934
11
129.9936490000000049
21
-157.4489419999999882
0
LINE
8
BLACK
6
CONTINUOUS
10
130.8507919999999842
20
-158.5918000000000063
11
130.6603159999999946
21
-158.6870380000000011
0
LINE
8
BLACK
6
CONTINUOUS
10
130.6603159999999946
20
-158.6870380000000011
11
130.1841249999999945
21
-158.6870380000000011
0
LINE
8
BLACK
6
CONTINUOUS
10
130.1841249999999945
20
-158.6870380000000011
11
129.9936490000000049
21
-158.5918000000000063
0
LINE
8
BLACK
6
CONTINUOUS
10
129.9936490000000049
20
-158.5918000000000063
11
129.8984109999999816
21
-158.4013229999999908
0
LINE
8
BLACK
6
CONTINUOUS
10
129.8984109999999816
20
-158.4013229999999908
11
129.8984109999999816
21
-158.2108470000000011
0
LINE
8
BLACK
6
CONTINUOUS
10
129.8984109999999816
20
-158.2108470000000011
11
129.9936490000000049
21
-158.020370999999983
0
LINE
8
BLACK
6
CONTINUOUS
10
129.9936490000000049
20
-158.020370999999983
11
130.1841249999999945
21
-157.9251329999999882
0
LINE
8
BLACK
6
CONTINUOUS
10
130.1841249999999945
20
-157.9251329999999882
11
130.6603159999999946
21
-157.9251329999999882
0
LINE
8
BLACK
6
CONTINUOUS
10
130.6603159999999946
20
-157.9251329999999882
11
130.8507919999999842
21
-157.8298949999999934
0
LINE
8
BLACK
6
CONTINUOUS
10
131.8031729999999868
20
-157.3537039999999934
11
131.8031729999999868
21
-159.3537039999999934
0
LINE
8
BLACK
6
CONTINUOUS
10
131.8031729999999868
20
-157.4489419999999882
11
131.9936490000000049
21
-157.3537039999999934
0
LINE
8
BLACK
6
CONTINUOUS
10
131.9936490000000049
20
-157.3537039999999934
11
132.3746019999999817
21
-157.3537039999999934
0
LINE
8
BLACK
6
CONTINUOUS
10
132.3746019999999817
20
-157.3537039999999934
11
132.5650779999999997
21
-157.4489419999999882
0
LINE
8
BLACK
6
CONTINUOUS
10
132.5650779999999997
20
-157.4489419999999882
11
132.6603159999999946
21
-157.544179999999983
0
LINE
8
BLACK
6
CONTINUOUS
10
132.6603159999999946
20
-157.544179999999983
11
132.7555539999999894
21
-157.7346569999999986
0
LINE
8
BLACK
6
CONTINUOUS
10
132.7555539999999894
20
-157.7346569999999986
11
132.7555539999999894
21
-158.3060849999999959
0
LINE
8
BLACK
6
CONTINUOUS
10
132.7555539999999894
20
-158.3060849999999959
11
132.6603159999999946
21
-158.4965609999999856
0
LINE
8
BLACK
6
CONTINUOUS
10
132.6603159999999946
20
-158.4965609999999856
11
132.5650779999999997
21
-158.5918000000000063
0
LINE
8
BLACK
6
CONTINUOUS
10
132.5650779999999997
20
-158.5918000000000063
11
132.3746019999999817
21
-158.6870380000000011
0
LINE
8
BLACK
6
CONTINUOUS
10
132.3746019999999817
20
-158.6870380000000011
11
131.9936490000000049
21
-158.6870380000000011
0
LINE
8
BLACK
6
CONTINUOUS
10
131.9936490000000049
20
-158.6870380000000011
11
131.8031729999999868
21
-158.5918000000000063
0
LINE
8
BLACK
6
CONTINUOUS
10
133.6126969999999972
20
-158.4965609999999856
11
133.707934999999992
21
-158.5918000000000063
0
LINE
8
BLACK
6
CONTINUOUS
10
133.707934999999992
20
-158.5918000000000063
11
133.6126969999999972
21
-158.6870380000000011
0
LINE
8
BLACK
6
CONTINUOUS
10
133.6126969999999972
20
-158.6870380000000011
11
133.5174590000000023
21
-158.5918000000000063
0
LINE
8
BLACK
6
CONTINUOUS
10
133.5174590000000023
20
-158.5918000000000063
11
133.6126969999999972
21
-158.4965609999999856
0
LINE
8
BLACK
6
CONTINUOUS
10
133.6126969999999972
20
-158.4965609999999856
11
133.6126969999999972
21
-158.6870380000000011
0
LINE
8
BLACK
6
CONTINUOUS
10
133.6126969999999972
20
-157.4489419999999882
11
133.707934999999992
21
-157.544179999999983
0
LINE
8
BLACK
6
CONTINUOUS
10
133.707934999999992
20
-157.544179999999983
11
133.6126969999999972
21
-157.6394190000000037
0
LINE
8
BLACK
6
CONTINUOUS
10
133.6126969999999972
20
-157.6394190000000037
11
133.5174590000000023
21
-157.544179999999983
0
LINE
8
BLACK
6
CONTINUOUS
10
133.5174590000000023
20
-157.544179999999983
11
133.6126969999999972
21
-157.4489419999999882
0
LINE
8
BLACK
6
CONTINUOUS
10
133.6126969999999972
20
-157.4489419999999882
11
133.6126969999999972
21
-157.6394190000000037
  0
ENDSEC
  0
EOF
