%TF.GenerationSoftware,KiCad,Pcbnew,9.0.0*%
%TF.CreationDate,2025-03-29T15:55:27-07:00*%
%TF.ProjectId,Distortion-prototype,44697374-6f72-4746-996f-6e2d70726f74,rev?*%
%TF.SameCoordinates,Original*%
%TF.FileFunction,Copper,L2,Bot*%
%TF.FilePolarity,Positive*%
%FSLAX46Y46*%
G04 Gerber Fmt 4.6, Leading zero omitted, Abs format (unit mm)*
G04 Created by KiCad (PCBNEW 9.0.0) date 2025-03-29 15:55:27*
%MOMM*%
%LPD*%
G01*
G04 APERTURE LIST*
%TA.AperFunction,ComponentPad*%
%ADD10R,1.500000X1.500000*%
%TD*%
%TA.AperFunction,ComponentPad*%
%ADD11O,1.500000X1.500000*%
%TD*%
%TA.AperFunction,ComponentPad*%
%ADD12R,1.600000X1.600000*%
%TD*%
%TA.AperFunction,ComponentPad*%
%ADD13C,1.600000*%
%TD*%
%TA.AperFunction,ComponentPad*%
%ADD14C,1.400000*%
%TD*%
%TA.AperFunction,ComponentPad*%
%ADD15O,1.400000X1.400000*%
%TD*%
%TA.AperFunction,ComponentPad*%
%ADD16R,1.700000X1.700000*%
%TD*%
%TA.AperFunction,ComponentPad*%
%ADD17O,1.700000X1.700000*%
%TD*%
%TA.AperFunction,ComponentPad*%
%ADD18R,1.800000X1.800000*%
%TD*%
%TA.AperFunction,ComponentPad*%
%ADD19O,1.800000X1.800000*%
%TD*%
%TA.AperFunction,ComponentPad*%
%ADD20O,1.600000X1.600000*%
%TD*%
%TA.AperFunction,Conductor*%
%ADD21C,1.000000*%
%TD*%
G04 APERTURE END LIST*
D10*
%TO.P,D2,1,K*%
%TO.N,Net-(D2-K)*%
X134747000Y-108026200D03*
D11*
%TO.P,D2,2,A*%
%TO.N,Net-(D1-K)*%
X127127000Y-108026200D03*
%TD*%
D10*
%TO.P,D1,1,K*%
%TO.N,Net-(D1-K)*%
X125272800Y-115366800D03*
D11*
%TO.P,D1,2,A*%
%TO.N,Net-(D1-A)*%
X132892800Y-115366800D03*
%TD*%
D12*
%TO.P,C8,1*%
%TO.N,+9V*%
X142417800Y-137388600D03*
D13*
%TO.P,C8,2*%
%TO.N,GND*%
X142417800Y-139888600D03*
%TD*%
D14*
%TO.P,R1,1*%
%TO.N,DIST IN*%
X128270000Y-143814800D03*
D15*
%TO.P,R1,2*%
%TO.N,GND*%
X128270000Y-136194800D03*
%TD*%
D13*
%TO.P,C2,1*%
%TO.N,Net-(D1-A)*%
X134670800Y-101955600D03*
%TO.P,C2,2*%
%TO.N,Net-(D2-K)*%
X134670800Y-99455600D03*
%TD*%
D10*
%TO.P,D3,1,K*%
%TO.N,Net-(D1-A)*%
X131216400Y-104470200D03*
D11*
%TO.P,D3,2,A*%
%TO.N,Net-(D2-K)*%
X138836400Y-104470200D03*
%TD*%
D16*
%TO.P,TONE1,1,1*%
%TO.N,Net-(C4-Pad2)*%
X134411600Y-89941400D03*
D17*
%TO.P,TONE1,2,2*%
%TO.N,Net-(U1B-+)*%
X136951600Y-89941400D03*
%TO.P,TONE1,3,3*%
%TO.N,Net-(C5-Pad2)*%
X139491600Y-89941400D03*
%TD*%
D13*
%TO.P,C3,1*%
%TO.N,GND*%
X140106400Y-109087600D03*
%TO.P,C3,2*%
%TO.N,Net-(C3-Pad2)*%
X140106400Y-111587600D03*
%TD*%
D16*
%TO.P,VOL1,1,1*%
%TO.N,Net-(C6-Pad1)*%
X146522200Y-89941400D03*
D17*
%TO.P,VOL1,2,2*%
%TO.N,DIST OUT*%
X149062200Y-89941400D03*
%TO.P,VOL1,3,3*%
%TO.N,GND*%
X151602200Y-89941400D03*
%TD*%
D14*
%TO.P,R5,1*%
%TO.N,Net-(D2-K)*%
X123953600Y-93903800D03*
D15*
%TO.P,R5,2*%
%TO.N,Net-(C5-Pad2)*%
X131573600Y-93903800D03*
%TD*%
D13*
%TO.P,C4,1*%
%TO.N,Net-(D2-K)*%
X124053600Y-99618800D03*
%TO.P,C4,2*%
%TO.N,Net-(C4-Pad2)*%
X124053600Y-102118800D03*
%TD*%
D14*
%TO.P,R3,1*%
%TO.N,Net-(D1-A)*%
X127533400Y-105333800D03*
D15*
%TO.P,R3,2*%
%TO.N,Net-(GAIN1-Pad2)*%
X127533400Y-97713800D03*
%TD*%
D16*
%TO.P,GAIN1,1,1*%
%TO.N,Net-(D2-K)*%
X122301000Y-89941400D03*
D17*
%TO.P,GAIN1,2,2*%
%TO.N,Net-(GAIN1-Pad2)*%
X124841000Y-89941400D03*
%TO.P,GAIN1,3,3*%
X127381000Y-89941400D03*
%TD*%
D16*
%TO.P,J2,1,Pin_1*%
%TO.N,DIST IN*%
X122656600Y-149377400D03*
D17*
%TO.P,J2,2,Pin_2*%
%TO.N,DIST OUT*%
X125196600Y-149377400D03*
%TD*%
D18*
%TO.P,D4,1,K*%
%TO.N,+9V*%
X142494000Y-133578600D03*
D19*
%TO.P,D4,2,A*%
%TO.N,Net-(D4-A)*%
X150114000Y-133578600D03*
%TD*%
D14*
%TO.P,R7,1*%
%TO.N,+5VA*%
X131851400Y-129895600D03*
D15*
%TO.P,R7,2*%
%TO.N,GND*%
X139471400Y-129895600D03*
%TD*%
D14*
%TO.P,R2,1*%
%TO.N,Net-(U1A-+)*%
X133045200Y-122428000D03*
D15*
%TO.P,R2,2*%
%TO.N,+5VA*%
X125425200Y-122428000D03*
%TD*%
D14*
%TO.P,R8,1*%
%TO.N,+5VA*%
X131851400Y-133629400D03*
D15*
%TO.P,R8,2*%
%TO.N,+9V*%
X139471400Y-133629400D03*
%TD*%
D13*
%TO.P,C5,1*%
%TO.N,GND*%
X136575800Y-96449200D03*
%TO.P,C5,2*%
%TO.N,Net-(C5-Pad2)*%
X136575800Y-93949200D03*
%TD*%
D12*
%TO.P,U1,1*%
%TO.N,Net-(D2-K)*%
X141173200Y-117408800D03*
D20*
%TO.P,U1,2,-*%
%TO.N,Net-(D1-A)*%
X141173200Y-119948800D03*
%TO.P,U1,3,+*%
%TO.N,Net-(U1A-+)*%
X141173200Y-122488800D03*
%TO.P,U1,4,V-*%
%TO.N,GND*%
X141173200Y-125028800D03*
%TO.P,U1,5,+*%
%TO.N,Net-(U1B-+)*%
X148793200Y-125028800D03*
%TO.P,U1,6,-*%
%TO.N,Net-(U1B--)*%
X148793200Y-122488800D03*
%TO.P,U1,7*%
X148793200Y-119948800D03*
%TO.P,U1,8,V+*%
%TO.N,+9V*%
X148793200Y-117408800D03*
%TD*%
D12*
%TO.P,C7,1*%
%TO.N,+5VA*%
X126985913Y-129895600D03*
D13*
%TO.P,C7,2*%
%TO.N,GND*%
X124485913Y-129895600D03*
%TD*%
%TO.P,C6,1*%
%TO.N,Net-(C6-Pad1)*%
X146837400Y-102051800D03*
%TO.P,C6,2*%
%TO.N,Net-(U1B--)*%
X146837400Y-104551800D03*
%TD*%
D14*
%TO.P,R4,1*%
%TO.N,Net-(C3-Pad2)*%
X136525000Y-111582200D03*
D15*
%TO.P,R4,2*%
%TO.N,Net-(D1-A)*%
X128905000Y-111582200D03*
%TD*%
D13*
%TO.P,C1,1*%
%TO.N,DIST IN*%
X129433000Y-125730000D03*
%TO.P,C1,2*%
%TO.N,Net-(U1A-+)*%
X131933000Y-125730000D03*
%TD*%
D16*
%TO.P,J1,1,Pin_1*%
%TO.N,Net-(D4-A)*%
X135559800Y-149402800D03*
D17*
%TO.P,J1,2,Pin_2*%
%TO.N,GND*%
X133019800Y-149402800D03*
%TD*%
D13*
%TO.P,C9,1*%
%TO.N,+9V*%
X137185400Y-137439400D03*
%TO.P,C9,2*%
%TO.N,GND*%
X137185400Y-139939400D03*
%TD*%
D14*
%TO.P,R6,1*%
%TO.N,Net-(C4-Pad2)*%
X122478800Y-113563400D03*
D15*
%TO.P,R6,2*%
%TO.N,+5VA*%
X122478800Y-121183400D03*
%TD*%
D21*
%TO.N,Net-(U1A-+)*%
X131933000Y-125730000D02*
X131933000Y-123540200D01*
X131933000Y-125786200D02*
X131933000Y-125730000D01*
X131933000Y-123540200D02*
X133045200Y-122428000D01*
X141112400Y-122428000D02*
X141173200Y-122488800D01*
X133045200Y-122428000D02*
X141112400Y-122428000D01*
%TO.N,DIST IN*%
X122656600Y-148361400D02*
X122656600Y-149377400D01*
X120421400Y-131673600D02*
X120421400Y-120552380D01*
X122656600Y-149377400D02*
X122656600Y-133908800D01*
X127203200Y-143814800D02*
X122656600Y-148361400D01*
X122656600Y-149377400D02*
X122707400Y-149377400D01*
X129433000Y-123540200D02*
X129433000Y-125730000D01*
X128270000Y-143814800D02*
X127203200Y-143814800D01*
X125171200Y-119278400D02*
X129433000Y-123540200D01*
X122656600Y-133908800D02*
X120421400Y-131673600D01*
X121695380Y-119278400D02*
X125171200Y-119278400D01*
X129667114Y-125730000D02*
X129433000Y-125730000D01*
X120421400Y-120552380D02*
X121695380Y-119278400D01*
%TO.N,Net-(D2-K)*%
X133781800Y-108991400D02*
X133781800Y-113030000D01*
X136296400Y-108026200D02*
X134747000Y-108026200D01*
X134670800Y-99455600D02*
X134507600Y-99618800D01*
X138836400Y-104470200D02*
X138836400Y-105486200D01*
X134747000Y-108026200D02*
X133781800Y-108991400D01*
X122301000Y-90347800D02*
X122301000Y-89941400D01*
X134507600Y-99618800D02*
X124053600Y-99618800D01*
X141147800Y-117383400D02*
X141173200Y-117408800D01*
X133781800Y-113030000D02*
X138160600Y-117408800D01*
X123850400Y-93903800D02*
X123850400Y-91897200D01*
X123850400Y-91897200D02*
X122301000Y-90347800D01*
X138836400Y-105486200D02*
X136296400Y-108026200D01*
X138836400Y-102489830D02*
X135802170Y-99455600D01*
X138160600Y-117408800D02*
X141173200Y-117408800D01*
X124053600Y-94003800D02*
X123953600Y-93903800D01*
X124053600Y-99618800D02*
X124053600Y-94003800D01*
X138836400Y-104470200D02*
X138836400Y-102489830D01*
X135802170Y-99455600D02*
X134670800Y-99455600D01*
%TO.N,Net-(D1-A)*%
X134670800Y-101955600D02*
X133731000Y-101955600D01*
X131140200Y-104546400D02*
X131216400Y-104470200D01*
X128905000Y-111582200D02*
X129387600Y-111099600D01*
X133731000Y-101955600D02*
X131216400Y-104470200D01*
X141173200Y-119948800D02*
X137474800Y-119948800D01*
X132892800Y-115366800D02*
X132689600Y-115366800D01*
X132689600Y-115366800D02*
X128905000Y-111582200D01*
X129387600Y-107188000D02*
X127533400Y-105333800D01*
X137474800Y-119948800D02*
X132892800Y-115366800D01*
X129387600Y-111099600D02*
X129387600Y-107188000D01*
X128320800Y-104546400D02*
X131140200Y-104546400D01*
X127533400Y-105333800D02*
X128320800Y-104546400D01*
%TO.N,Net-(C3-Pad2)*%
X140101000Y-111582200D02*
X140106400Y-111587600D01*
X136525000Y-111582200D02*
X140101000Y-111582200D01*
X136575800Y-111531400D02*
X136525000Y-111582200D01*
%TO.N,Net-(C4-Pad2)*%
X122478800Y-113563400D02*
X122478800Y-113487200D01*
X124053600Y-111912400D02*
X124053600Y-102118800D01*
X124053600Y-102118800D02*
X123175400Y-102118800D01*
X131998600Y-87528400D02*
X134411600Y-89941400D01*
X121894600Y-100838000D02*
X121894600Y-92887800D01*
X123175400Y-102118800D02*
X121894600Y-100838000D01*
X122478800Y-113487200D02*
X124053600Y-111912400D01*
X121894600Y-92887800D02*
X121145400Y-92887800D01*
X120421400Y-87528400D02*
X131998600Y-87528400D01*
X120250000Y-91992400D02*
X120250000Y-87699800D01*
X121145400Y-92887800D02*
X120250000Y-91992400D01*
X120250000Y-87699800D02*
X120421400Y-87528400D01*
%TO.N,Net-(C5-Pad2)*%
X139491600Y-89941400D02*
X139491600Y-91033400D01*
X131619000Y-93949200D02*
X131573600Y-93903800D01*
X139491600Y-91033400D02*
X136575800Y-93949200D01*
X136530400Y-93903800D02*
X136575800Y-93949200D01*
X136575800Y-93949200D02*
X131619000Y-93949200D01*
%TO.N,Net-(U1B--)*%
X148793200Y-119948800D02*
X148503358Y-119948800D01*
X146792200Y-118237642D02*
X146792200Y-115640600D01*
X146837400Y-104551800D02*
X146837400Y-115595400D01*
X148503358Y-119948800D02*
X146792200Y-118237642D01*
X148793200Y-122488800D02*
X148793200Y-119948800D01*
X146837400Y-115595400D02*
X146792200Y-115640600D01*
%TO.N,Net-(C6-Pad1)*%
X146837400Y-102051800D02*
X146837400Y-90256600D01*
X146837400Y-90256600D02*
X146522200Y-89941400D01*
%TO.N,+5VA*%
X126985913Y-129895600D02*
X131851400Y-129895600D01*
X122478800Y-121183400D02*
X122529600Y-121234200D01*
X126985913Y-129895600D02*
X126985913Y-123988713D01*
X131851400Y-133629400D02*
X131851400Y-129895600D01*
X126985913Y-123988713D02*
X125425200Y-122428000D01*
X122529600Y-121234200D02*
X124231400Y-121234200D01*
X124231400Y-121234200D02*
X125425200Y-122428000D01*
%TO.N,+9V*%
X150850600Y-125907800D02*
X147904200Y-128854200D01*
X150850600Y-118668800D02*
X150850600Y-125907800D01*
X139522200Y-133578600D02*
X139471400Y-133629400D01*
X142443200Y-133629400D02*
X142494000Y-133578600D01*
X142417800Y-137388600D02*
X142367000Y-137439400D01*
X142417800Y-137388600D02*
X142443200Y-137363200D01*
X147904200Y-128854200D02*
X146024600Y-128854200D01*
X142367000Y-137439400D02*
X137185400Y-137439400D01*
X142494000Y-133578600D02*
X139522200Y-133578600D01*
X142443200Y-137363200D02*
X142443200Y-133629400D01*
X149590600Y-117408800D02*
X150850600Y-118668800D01*
X142875000Y-132003800D02*
X142875000Y-133578600D01*
X148793200Y-117408800D02*
X149590600Y-117408800D01*
X146024600Y-128854200D02*
X142875000Y-132003800D01*
%TO.N,Net-(D1-K)*%
X125272800Y-115366800D02*
X126288800Y-114350800D01*
X126288800Y-108864400D02*
X127127000Y-108026200D01*
X126288800Y-114350800D02*
X126288800Y-108864400D01*
%TO.N,Net-(GAIN1-Pad2)*%
X125933200Y-97307400D02*
X125933200Y-91033600D01*
X127533400Y-97713800D02*
X126339600Y-97713800D01*
X125933200Y-91033600D02*
X124841000Y-89941400D01*
X124841000Y-89941400D02*
X127381000Y-89941400D01*
X126339600Y-97713800D02*
X125933200Y-97307400D01*
%TO.N,DIST OUT*%
X149062200Y-89215200D02*
X149062200Y-89941400D01*
X154584400Y-142748000D02*
X154584400Y-89154000D01*
X153136600Y-87706200D02*
X150571200Y-87706200D01*
X149062200Y-90286600D02*
X149062200Y-89941400D01*
X150571200Y-87706200D02*
X149062200Y-89215200D01*
X128574800Y-152755600D02*
X144576800Y-152755600D01*
X154584400Y-89154000D02*
X153136600Y-87706200D01*
X125196600Y-149377400D02*
X128574800Y-152755600D01*
X144576800Y-152755600D02*
X154584400Y-142748000D01*
%TO.N,Net-(U1B-+)*%
X137800519Y-87890400D02*
X136951600Y-88739319D01*
X144500600Y-122148600D02*
X144500600Y-92049847D01*
X148793200Y-125028800D02*
X147380800Y-125028800D01*
X140341153Y-87890400D02*
X137800519Y-87890400D01*
X136951600Y-88739319D02*
X136951600Y-89941400D01*
X144500600Y-92049847D02*
X140341153Y-87890400D01*
X147380800Y-125028800D02*
X144500600Y-122148600D01*
%TO.N,Net-(D4-A)*%
X150139400Y-141274800D02*
X150114000Y-141249400D01*
X135585200Y-149377400D02*
X135559800Y-149402800D01*
X150114000Y-141249400D02*
X150114000Y-133578600D01*
X142011400Y-149402800D02*
X150139400Y-141274800D01*
X135559800Y-149402800D02*
X142011400Y-149402800D01*
%TD*%
%TA.AperFunction,Conductor*%
%TO.N,GND*%
G36*
X131517013Y-88748585D02*
G01*
X131537655Y-88765219D01*
X132824781Y-90052345D01*
X132858266Y-90113668D01*
X132861100Y-90140026D01*
X132861100Y-90848013D01*
X132867513Y-90918592D01*
X132867513Y-90918594D01*
X132867514Y-90918596D01*
X132883882Y-90971123D01*
X132918122Y-91081006D01*
X133006130Y-91226588D01*
X133126411Y-91346869D01*
X133126413Y-91346870D01*
X133126415Y-91346872D01*
X133271994Y-91434878D01*
X133434404Y-91485486D01*
X133504984Y-91491900D01*
X133504987Y-91491900D01*
X135318213Y-91491900D01*
X135318216Y-91491900D01*
X135388796Y-91485486D01*
X135551206Y-91434878D01*
X135696785Y-91346872D01*
X135817072Y-91226585D01*
X135828294Y-91208020D01*
X135879820Y-91160831D01*
X135948679Y-91148990D01*
X136007298Y-91171849D01*
X136138956Y-91267503D01*
X136138958Y-91267504D01*
X136138961Y-91267506D01*
X136356415Y-91378304D01*
X136588524Y-91453721D01*
X136829573Y-91491900D01*
X136829574Y-91491900D01*
X137035974Y-91491900D01*
X137103013Y-91511585D01*
X137148768Y-91564389D01*
X137158712Y-91633547D01*
X137129687Y-91697103D01*
X137123655Y-91703581D01*
X136392125Y-92435109D01*
X136330802Y-92468594D01*
X136323843Y-92469901D01*
X136224434Y-92485646D01*
X135999805Y-92558633D01*
X135789363Y-92665859D01*
X135707938Y-92725018D01*
X135642132Y-92748498D01*
X135635053Y-92748700D01*
X132406705Y-92748700D01*
X132339666Y-92729015D01*
X132333822Y-92725020D01*
X132327628Y-92720520D01*
X132307622Y-92705985D01*
X132303946Y-92704112D01*
X132111206Y-92605904D01*
X132111203Y-92605903D01*
X131901552Y-92537785D01*
X131731124Y-92510792D01*
X131683822Y-92503300D01*
X131463378Y-92503300D01*
X131416076Y-92510792D01*
X131245647Y-92537785D01*
X131035996Y-92605903D01*
X131035993Y-92605904D01*
X130839574Y-92705987D01*
X130661241Y-92835552D01*
X130661236Y-92835556D01*
X130505356Y-92991436D01*
X130505352Y-92991441D01*
X130375787Y-93169774D01*
X130275704Y-93366193D01*
X130275703Y-93366196D01*
X130207585Y-93575847D01*
X130173100Y-93793578D01*
X130173100Y-94014021D01*
X130207585Y-94231752D01*
X130275703Y-94441403D01*
X130275704Y-94441406D01*
X130375787Y-94637825D01*
X130505352Y-94816158D01*
X130505356Y-94816163D01*
X130661236Y-94972043D01*
X130661241Y-94972047D01*
X130816792Y-95085060D01*
X130839578Y-95101615D01*
X130945517Y-95155594D01*
X131035993Y-95201695D01*
X131035996Y-95201696D01*
X131130933Y-95232542D01*
X131245649Y-95269815D01*
X131463378Y-95304300D01*
X131463379Y-95304300D01*
X131683821Y-95304300D01*
X131683822Y-95304300D01*
X131901551Y-95269815D01*
X132111206Y-95201695D01*
X132167623Y-95172949D01*
X132186727Y-95163215D01*
X132243022Y-95149700D01*
X135635053Y-95149700D01*
X135655128Y-95155594D01*
X135676026Y-95156665D01*
X135698032Y-95168192D01*
X135702092Y-95169385D01*
X135707339Y-95172949D01*
X135707686Y-95173197D01*
X135789367Y-95232543D01*
X135792930Y-95234358D01*
X135800099Y-95239502D01*
X135818936Y-95263631D01*
X135839475Y-95286331D01*
X135840367Y-95291085D01*
X135843094Y-95294577D01*
X135845076Y-95316154D01*
X135851431Y-95349982D01*
X135849877Y-95369724D01*
X136529354Y-96049200D01*
X136523139Y-96049200D01*
X136421406Y-96076459D01*
X136330194Y-96129120D01*
X136255720Y-96203594D01*
X136203059Y-96294806D01*
X136175800Y-96396539D01*
X136175800Y-96402753D01*
X135496324Y-95723277D01*
X135496323Y-95723277D01*
X135463943Y-95767844D01*
X135371044Y-95950168D01*
X135307809Y-96144782D01*
X135275800Y-96346882D01*
X135275800Y-96551517D01*
X135307809Y-96753617D01*
X135371044Y-96948231D01*
X135463941Y-97130550D01*
X135463947Y-97130559D01*
X135496323Y-97175121D01*
X135496324Y-97175122D01*
X136175800Y-96495646D01*
X136175800Y-96501861D01*
X136203059Y-96603594D01*
X136255720Y-96694806D01*
X136330194Y-96769280D01*
X136421406Y-96821941D01*
X136523139Y-96849200D01*
X136529353Y-96849200D01*
X135849876Y-97528674D01*
X135894450Y-97561059D01*
X136076768Y-97653955D01*
X136271382Y-97717190D01*
X136473483Y-97749200D01*
X136678117Y-97749200D01*
X136880217Y-97717190D01*
X137074831Y-97653955D01*
X137257149Y-97561059D01*
X137301721Y-97528674D01*
X136622247Y-96849200D01*
X136628461Y-96849200D01*
X136730194Y-96821941D01*
X136821406Y-96769280D01*
X136895880Y-96694806D01*
X136948541Y-96603594D01*
X136975800Y-96501861D01*
X136975800Y-96495648D01*
X137655274Y-97175122D01*
X137655274Y-97175121D01*
X137687659Y-97130549D01*
X137780555Y-96948231D01*
X137843790Y-96753617D01*
X137875800Y-96551517D01*
X137875800Y-96346882D01*
X137843790Y-96144782D01*
X137780555Y-95950168D01*
X137687659Y-95767850D01*
X137655274Y-95723277D01*
X137655274Y-95723276D01*
X136975800Y-96402751D01*
X136975800Y-96396539D01*
X136948541Y-96294806D01*
X136895880Y-96203594D01*
X136821406Y-96129120D01*
X136730194Y-96076459D01*
X136628461Y-96049200D01*
X136622246Y-96049200D01*
X137301721Y-95369725D01*
X137300168Y-95349982D01*
X137314532Y-95281605D01*
X137359009Y-95234518D01*
X137362223Y-95232547D01*
X137362233Y-95232543D01*
X137553310Y-95093717D01*
X137720317Y-94926710D01*
X137859143Y-94735633D01*
X137966368Y-94525192D01*
X138039353Y-94300568D01*
X138055098Y-94201153D01*
X138085025Y-94138023D01*
X138089871Y-94132891D01*
X140407290Y-91815473D01*
X140518360Y-91662599D01*
X140604147Y-91494232D01*
X140662540Y-91314518D01*
X140669986Y-91267506D01*
X140692100Y-91127886D01*
X140692100Y-90967210D01*
X140711785Y-90900171D01*
X140715764Y-90894349D01*
X140817706Y-90754039D01*
X140928504Y-90536585D01*
X140954523Y-90456506D01*
X140993959Y-90398833D01*
X141058318Y-90371634D01*
X141127164Y-90383548D01*
X141160134Y-90407145D01*
X143263781Y-92510792D01*
X143297266Y-92572115D01*
X143300100Y-92598473D01*
X143300100Y-122243086D01*
X143329659Y-122429718D01*
X143388054Y-122609436D01*
X143463816Y-122758126D01*
X143473840Y-122777799D01*
X143584910Y-122930674D01*
X146598727Y-125944490D01*
X146751601Y-126055560D01*
X146831147Y-126096090D01*
X146919963Y-126141345D01*
X146919965Y-126141345D01*
X146919968Y-126141347D01*
X147016297Y-126172646D01*
X147099681Y-126199740D01*
X147286314Y-126229300D01*
X147286319Y-126229300D01*
X147475282Y-126229300D01*
X147852453Y-126229300D01*
X147919492Y-126248985D01*
X147925338Y-126252982D01*
X147985633Y-126296788D01*
X148006767Y-126312143D01*
X148117633Y-126368632D01*
X148217203Y-126419366D01*
X148217205Y-126419366D01*
X148217208Y-126419368D01*
X148344827Y-126460834D01*
X148402502Y-126500272D01*
X148429700Y-126564631D01*
X148417785Y-126633477D01*
X148394189Y-126666446D01*
X147443255Y-127617381D01*
X147381932Y-127650866D01*
X147355574Y-127653700D01*
X145930113Y-127653700D01*
X145743485Y-127683259D01*
X145563765Y-127741654D01*
X145395400Y-127827440D01*
X145242523Y-127938512D01*
X141959310Y-131221725D01*
X141937992Y-131251068D01*
X141874049Y-131339078D01*
X141874048Y-131339080D01*
X141848240Y-131374599D01*
X141762454Y-131542963D01*
X141704059Y-131722681D01*
X141680173Y-131873498D01*
X141650244Y-131936633D01*
X141590932Y-131973564D01*
X141557700Y-131978100D01*
X141537384Y-131978100D01*
X141518145Y-131979848D01*
X141466807Y-131984513D01*
X141304393Y-132035122D01*
X141158811Y-132123130D01*
X141038528Y-132243413D01*
X141038528Y-132243414D01*
X140993288Y-132318250D01*
X140941760Y-132365438D01*
X140887171Y-132378100D01*
X140130224Y-132378100D01*
X140073929Y-132364585D01*
X140009006Y-132331504D01*
X140009003Y-132331503D01*
X139799352Y-132263385D01*
X139673253Y-132243413D01*
X139581622Y-132228900D01*
X139361178Y-132228900D01*
X139288601Y-132240395D01*
X139143447Y-132263385D01*
X138933796Y-132331503D01*
X138933793Y-132331504D01*
X138737374Y-132431587D01*
X138559041Y-132561152D01*
X138559036Y-132561156D01*
X138403156Y-132717036D01*
X138403152Y-132717041D01*
X138273587Y-132895374D01*
X138173504Y-133091793D01*
X138173503Y-133091796D01*
X138105385Y-133301447D01*
X138070900Y-133519178D01*
X138070900Y-133739621D01*
X138105385Y-133957352D01*
X138173503Y-134167003D01*
X138173504Y-134167006D01*
X138273587Y-134363425D01*
X138403152Y-134541758D01*
X138403156Y-134541763D01*
X138559036Y-134697643D01*
X138559041Y-134697647D01*
X138671153Y-134779100D01*
X138737378Y-134827215D01*
X138865775Y-134892637D01*
X138933793Y-134927295D01*
X138933796Y-134927296D01*
X139038621Y-134961355D01*
X139143449Y-134995415D01*
X139361178Y-135029900D01*
X139361179Y-135029900D01*
X139581621Y-135029900D01*
X139581622Y-135029900D01*
X139799351Y-134995415D01*
X140009006Y-134927295D01*
X140205422Y-134827215D01*
X140226581Y-134811841D01*
X140239052Y-134802782D01*
X140304858Y-134779302D01*
X140311937Y-134779100D01*
X140887171Y-134779100D01*
X140954210Y-134798785D01*
X140993288Y-134838950D01*
X141038526Y-134913783D01*
X141038527Y-134913784D01*
X141038528Y-134913785D01*
X141158815Y-135034072D01*
X141182848Y-135048600D01*
X141230036Y-135100126D01*
X141242700Y-135154718D01*
X141242700Y-135926869D01*
X141223015Y-135993908D01*
X141188057Y-136027921D01*
X141188515Y-136028506D01*
X141183081Y-136032762D01*
X141182856Y-136032982D01*
X141182616Y-136033126D01*
X141182610Y-136033131D01*
X141062330Y-136153411D01*
X141046830Y-136179052D01*
X140995301Y-136226238D01*
X140940714Y-136238900D01*
X138126147Y-136238900D01*
X138059108Y-136219215D01*
X138053262Y-136215218D01*
X137971836Y-136156059D01*
X137971835Y-136156058D01*
X137971833Y-136156057D01*
X137906115Y-136122572D01*
X137761396Y-136048833D01*
X137536768Y-135975846D01*
X137303497Y-135938900D01*
X137303492Y-135938900D01*
X137067308Y-135938900D01*
X137067303Y-135938900D01*
X136834031Y-135975846D01*
X136609403Y-136048833D01*
X136398966Y-136156057D01*
X136317539Y-136215218D01*
X136207890Y-136294883D01*
X136207888Y-136294885D01*
X136207887Y-136294885D01*
X136040885Y-136461887D01*
X136040885Y-136461888D01*
X136040883Y-136461890D01*
X135997975Y-136520948D01*
X135902057Y-136652966D01*
X135794833Y-136863403D01*
X135721846Y-137088031D01*
X135684900Y-137321302D01*
X135684900Y-137557497D01*
X135721846Y-137790768D01*
X135794833Y-138015396D01*
X135902057Y-138225833D01*
X136040883Y-138416910D01*
X136207890Y-138583917D01*
X136398967Y-138722743D01*
X136398970Y-138722744D01*
X136402197Y-138724722D01*
X136449075Y-138776531D01*
X136461031Y-138840182D01*
X136459477Y-138859924D01*
X137138954Y-139539400D01*
X137132739Y-139539400D01*
X137031006Y-139566659D01*
X136939794Y-139619320D01*
X136865320Y-139693794D01*
X136812659Y-139785006D01*
X136785400Y-139886739D01*
X136785400Y-139892953D01*
X136105924Y-139213477D01*
X136105923Y-139213477D01*
X136073543Y-139258044D01*
X135980644Y-139440368D01*
X135917409Y-139634982D01*
X135885400Y-139837082D01*
X135885400Y-140041717D01*
X135917409Y-140243817D01*
X135980644Y-140438431D01*
X136073541Y-140620750D01*
X136073547Y-140620759D01*
X136105923Y-140665321D01*
X136105924Y-140665322D01*
X136785400Y-139985846D01*
X136785400Y-139992061D01*
X136812659Y-140093794D01*
X136865320Y-140185006D01*
X136939794Y-140259480D01*
X137031006Y-140312141D01*
X137132739Y-140339400D01*
X137138953Y-140339400D01*
X136459476Y-141018874D01*
X136504050Y-141051259D01*
X136686368Y-141144155D01*
X136880982Y-141207390D01*
X137083083Y-141239400D01*
X137287717Y-141239400D01*
X137489817Y-141207390D01*
X137684431Y-141144155D01*
X137866749Y-141051259D01*
X137911321Y-141018874D01*
X137911322Y-141018874D01*
X137900944Y-141008496D01*
X137231847Y-140339400D01*
X137238061Y-140339400D01*
X137339794Y-140312141D01*
X137431006Y-140259480D01*
X137505480Y-140185006D01*
X137558141Y-140093794D01*
X137585400Y-139992061D01*
X137585400Y-139985847D01*
X138264874Y-140665321D01*
X138297259Y-140620749D01*
X138390155Y-140438431D01*
X138453390Y-140243817D01*
X138485400Y-140041717D01*
X138485400Y-139837087D01*
X138479655Y-139800813D01*
X138479655Y-139800810D01*
X138453390Y-139634982D01*
X138390155Y-139440368D01*
X138297259Y-139258050D01*
X138264874Y-139213477D01*
X138264874Y-139213476D01*
X137585400Y-139892951D01*
X137585400Y-139886739D01*
X137558141Y-139785006D01*
X137505480Y-139693794D01*
X137431006Y-139619320D01*
X137339794Y-139566659D01*
X137238061Y-139539400D01*
X137231846Y-139539400D01*
X137911321Y-138859925D01*
X137909768Y-138840182D01*
X137911978Y-138829657D01*
X137909906Y-138819105D01*
X137919036Y-138796062D01*
X137924132Y-138771805D01*
X137932361Y-138762432D01*
X137935644Y-138754148D01*
X137954112Y-138737659D01*
X137961100Y-138729702D01*
X137968266Y-138724560D01*
X137971833Y-138722743D01*
X138053514Y-138663397D01*
X138053861Y-138663149D01*
X138086505Y-138651720D01*
X138119068Y-138640102D01*
X138119748Y-138640082D01*
X138119807Y-138640062D01*
X138119877Y-138640078D01*
X138126147Y-138639900D01*
X141027081Y-138639900D01*
X141094120Y-138659585D01*
X141114757Y-138676214D01*
X141182615Y-138744072D01*
X141328194Y-138832078D01*
X141490604Y-138882686D01*
X141561184Y-138889100D01*
X141561187Y-138889100D01*
X141720491Y-138889100D01*
X141787530Y-138908785D01*
X141808172Y-138925419D01*
X142371354Y-139488600D01*
X142365139Y-139488600D01*
X142263406Y-139515859D01*
X142172194Y-139568520D01*
X142097720Y-139642994D01*
X142045059Y-139734206D01*
X142017800Y-139835939D01*
X142017800Y-139842153D01*
X141338324Y-139162677D01*
X141338323Y-139162677D01*
X141305943Y-139207244D01*
X141213044Y-139389568D01*
X141149809Y-139584182D01*
X141117800Y-139786282D01*
X141117800Y-139990917D01*
X141149809Y-140193017D01*
X141213044Y-140387631D01*
X141305941Y-140569950D01*
X141305947Y-140569959D01*
X141338323Y-140614521D01*
X141338324Y-140614522D01*
X142017800Y-139935046D01*
X142017800Y-139941261D01*
X142045059Y-140042994D01*
X142097720Y-140134206D01*
X142172194Y-140208680D01*
X142263406Y-140261341D01*
X142365139Y-140288600D01*
X142371353Y-140288600D01*
X141691876Y-140968074D01*
X141736450Y-141000459D01*
X141918768Y-141093355D01*
X142113382Y-141156590D01*
X142315483Y-141188600D01*
X142520117Y-141188600D01*
X142722217Y-141156590D01*
X142916831Y-141093355D01*
X143099149Y-141000459D01*
X143143721Y-140968074D01*
X142464247Y-140288600D01*
X142470461Y-140288600D01*
X142572194Y-140261341D01*
X142663406Y-140208680D01*
X142737880Y-140134206D01*
X142790541Y-140042994D01*
X142817800Y-139941261D01*
X142817800Y-139935047D01*
X143497274Y-140614521D01*
X143529659Y-140569949D01*
X143622555Y-140387631D01*
X143685790Y-140193017D01*
X143717800Y-139990917D01*
X143717800Y-139786282D01*
X143685790Y-139584182D01*
X143622555Y-139389568D01*
X143529659Y-139207250D01*
X143497274Y-139162677D01*
X143497274Y-139162676D01*
X142817800Y-139842151D01*
X142817800Y-139835939D01*
X142790541Y-139734206D01*
X142737880Y-139642994D01*
X142663406Y-139568520D01*
X142572194Y-139515859D01*
X142470461Y-139488600D01*
X142464246Y-139488600D01*
X143027428Y-138925419D01*
X143088751Y-138891934D01*
X143115109Y-138889100D01*
X143274413Y-138889100D01*
X143274416Y-138889100D01*
X143344996Y-138882686D01*
X143507406Y-138832078D01*
X143652985Y-138744072D01*
X143773272Y-138623785D01*
X143861278Y-138478206D01*
X143911886Y-138315796D01*
X143918300Y-138245216D01*
X143918300Y-136531984D01*
X143911886Y-136461404D01*
X143861278Y-136298994D01*
X143773272Y-136153415D01*
X143773270Y-136153413D01*
X143773269Y-136153411D01*
X143680019Y-136060161D01*
X143646534Y-135998838D01*
X143643700Y-135972480D01*
X143643700Y-135216138D01*
X143663385Y-135149099D01*
X143703548Y-135110021D01*
X143829185Y-135034072D01*
X143949472Y-134913785D01*
X144037478Y-134768206D01*
X144088086Y-134605796D01*
X144094500Y-134535216D01*
X144094500Y-132621984D01*
X144088099Y-132551554D01*
X144101635Y-132483012D01*
X144123906Y-132452657D01*
X146485545Y-130091019D01*
X146546868Y-130057534D01*
X146573226Y-130054700D01*
X147998686Y-130054700D01*
X148185318Y-130025140D01*
X148244775Y-130005821D01*
X148365032Y-129966747D01*
X148533399Y-129880960D01*
X148686274Y-129769890D01*
X151766290Y-126689873D01*
X151877360Y-126536999D01*
X151963147Y-126368632D01*
X152021540Y-126188918D01*
X152051100Y-126002286D01*
X152051100Y-118574319D01*
X152042300Y-118518759D01*
X152042300Y-118518758D01*
X152021540Y-118387685D01*
X152021540Y-118387682D01*
X151963147Y-118207968D01*
X151963145Y-118207965D01*
X151963145Y-118207963D01*
X151877359Y-118039600D01*
X151766290Y-117886726D01*
X150372674Y-116493110D01*
X150219799Y-116382040D01*
X150051432Y-116296253D01*
X149871718Y-116237860D01*
X149871716Y-116237859D01*
X149871714Y-116237859D01*
X149725449Y-116214693D01*
X149671963Y-116192539D01*
X149579633Y-116125457D01*
X149369196Y-116018233D01*
X149144568Y-115945246D01*
X148911297Y-115908300D01*
X148911292Y-115908300D01*
X148675108Y-115908300D01*
X148675103Y-115908300D01*
X148441831Y-115945246D01*
X148217200Y-116018234D01*
X148178452Y-116037978D01*
X148109782Y-116050874D01*
X148045042Y-116024597D01*
X148004786Y-115967490D01*
X148001794Y-115897684D01*
X148004221Y-115889192D01*
X148008340Y-115876518D01*
X148024463Y-115774716D01*
X148037900Y-115689886D01*
X148037900Y-105492546D01*
X148057585Y-105425507D01*
X148061573Y-105419671D01*
X148120743Y-105338233D01*
X148227968Y-105127792D01*
X148300953Y-104903168D01*
X148337900Y-104669897D01*
X148337900Y-104433702D01*
X148300953Y-104200431D01*
X148247495Y-104035905D01*
X148227968Y-103975808D01*
X148227966Y-103975805D01*
X148227966Y-103975803D01*
X148120742Y-103765366D01*
X147981917Y-103574290D01*
X147814910Y-103407283D01*
X147807801Y-103402118D01*
X147765135Y-103346788D01*
X147759156Y-103277175D01*
X147791762Y-103215380D01*
X147807801Y-103201482D01*
X147807900Y-103201409D01*
X147814910Y-103196317D01*
X147981917Y-103029310D01*
X148120743Y-102838233D01*
X148227968Y-102627792D01*
X148300953Y-102403168D01*
X148302192Y-102395343D01*
X148337900Y-102169897D01*
X148337900Y-101933702D01*
X148300953Y-101700431D01*
X148227966Y-101475803D01*
X148154881Y-101332367D01*
X148120743Y-101265367D01*
X148061582Y-101183938D01*
X148038102Y-101118132D01*
X148037900Y-101111053D01*
X148037900Y-91357089D01*
X148057585Y-91290050D01*
X148110389Y-91244295D01*
X148179547Y-91234351D01*
X148234786Y-91256772D01*
X148249556Y-91267503D01*
X148249558Y-91267504D01*
X148249561Y-91267506D01*
X148467015Y-91378304D01*
X148699124Y-91453721D01*
X148940173Y-91491900D01*
X148940174Y-91491900D01*
X149184226Y-91491900D01*
X149184227Y-91491900D01*
X149425276Y-91453721D01*
X149657385Y-91378304D01*
X149874839Y-91267506D01*
X150072283Y-91124055D01*
X150244855Y-90951483D01*
X150355798Y-90798782D01*
X150411126Y-90756118D01*
X150480740Y-90750139D01*
X150542535Y-90782744D01*
X150556432Y-90798782D01*
X150572475Y-90820862D01*
X150572476Y-90820864D01*
X150722735Y-90971123D01*
X150722740Y-90971127D01*
X150894642Y-91096020D01*
X151083982Y-91192495D01*
X151286071Y-91258157D01*
X151352200Y-91268631D01*
X151352200Y-90374412D01*
X151409207Y-90407325D01*
X151536374Y-90441400D01*
X151668026Y-90441400D01*
X151795193Y-90407325D01*
X151852200Y-90374412D01*
X151852200Y-91268630D01*
X151918326Y-91258157D01*
X151918329Y-91258157D01*
X152120417Y-91192495D01*
X152309757Y-91096020D01*
X152481659Y-90971127D01*
X152481664Y-90971123D01*
X152631923Y-90820864D01*
X152631927Y-90820859D01*
X152756820Y-90648957D01*
X152853295Y-90459617D01*
X152918957Y-90257529D01*
X152918957Y-90257526D01*
X152929431Y-90191400D01*
X152035212Y-90191400D01*
X152068125Y-90134393D01*
X152102200Y-90007226D01*
X152102200Y-89875574D01*
X152068125Y-89748407D01*
X152035212Y-89691400D01*
X152929431Y-89691400D01*
X152918957Y-89625273D01*
X152918957Y-89625270D01*
X152867295Y-89466270D01*
X152865300Y-89396429D01*
X152901380Y-89336596D01*
X152964081Y-89305768D01*
X153033496Y-89313733D01*
X153072907Y-89340271D01*
X153347581Y-89614945D01*
X153381066Y-89676268D01*
X153383900Y-89702626D01*
X153383900Y-142199374D01*
X153364215Y-142266413D01*
X153347581Y-142287055D01*
X144115855Y-151518781D01*
X144054532Y-151552266D01*
X144028174Y-151555100D01*
X129123426Y-151555100D01*
X129056387Y-151535415D01*
X129035745Y-151518781D01*
X126770839Y-149253875D01*
X126737354Y-149192552D01*
X126736047Y-149185592D01*
X126730853Y-149152800D01*
X131692569Y-149152800D01*
X132586788Y-149152800D01*
X132553875Y-149209807D01*
X132519800Y-149336974D01*
X132519800Y-149468626D01*
X132553875Y-149595793D01*
X132586788Y-149652800D01*
X131692569Y-149652800D01*
X131703042Y-149718926D01*
X131703042Y-149718929D01*
X131768704Y-149921017D01*
X131865179Y-150110357D01*
X131990072Y-150282259D01*
X131990076Y-150282264D01*
X132140335Y-150432523D01*
X132140340Y-150432527D01*
X132312242Y-150557420D01*
X132501582Y-150653895D01*
X132703671Y-150719557D01*
X132769800Y-150730031D01*
X132769800Y-149835812D01*
X132826807Y-149868725D01*
X132953974Y-149902800D01*
X133085626Y-149902800D01*
X133212793Y-149868725D01*
X133269800Y-149835812D01*
X133269800Y-150730030D01*
X133335926Y-150719557D01*
X133335929Y-150719557D01*
X133538017Y-150653895D01*
X133727357Y-150557420D01*
X133867718Y-150455443D01*
X133933524Y-150431963D01*
X134001578Y-150447788D01*
X134050273Y-150497894D01*
X134058987Y-150518868D01*
X134066322Y-150542406D01*
X134127751Y-150644021D01*
X134154330Y-150687988D01*
X134274611Y-150808269D01*
X134274613Y-150808270D01*
X134274615Y-150808272D01*
X134420194Y-150896278D01*
X134582604Y-150946886D01*
X134653184Y-150953300D01*
X134653187Y-150953300D01*
X136466413Y-150953300D01*
X136466416Y-150953300D01*
X136536996Y-150946886D01*
X136699406Y-150896278D01*
X136844985Y-150808272D01*
X136965272Y-150687985D01*
X136980286Y-150663149D01*
X137031814Y-150615962D01*
X137086402Y-150603300D01*
X142105886Y-150603300D01*
X142292518Y-150573740D01*
X142472232Y-150515347D01*
X142640599Y-150429560D01*
X142793474Y-150318490D01*
X150914405Y-142197556D01*
X150914412Y-142197551D01*
X150921472Y-142190491D01*
X150921474Y-142190490D01*
X151055090Y-142056874D01*
X151166160Y-141903999D01*
X151251947Y-141735632D01*
X151310340Y-141555918D01*
X151339900Y-141369286D01*
X151339900Y-141180312D01*
X151316027Y-141029587D01*
X151314500Y-141010189D01*
X151314500Y-134689477D01*
X151334185Y-134622438D01*
X151338182Y-134616592D01*
X151392548Y-134541763D01*
X151482870Y-134417445D01*
X151597241Y-134192979D01*
X151675090Y-133953385D01*
X151714500Y-133704562D01*
X151714500Y-133452638D01*
X151675090Y-133203815D01*
X151597241Y-132964221D01*
X151597239Y-132964218D01*
X151597239Y-132964216D01*
X151549679Y-132870876D01*
X151482870Y-132739755D01*
X151463952Y-132713717D01*
X151334798Y-132535950D01*
X151334794Y-132535945D01*
X151156654Y-132357805D01*
X151156649Y-132357801D01*
X150952848Y-132209732D01*
X150952847Y-132209731D01*
X150952845Y-132209730D01*
X150882747Y-132174013D01*
X150728383Y-132095360D01*
X150488785Y-132017510D01*
X150239962Y-131978100D01*
X149988038Y-131978100D01*
X149863626Y-131997805D01*
X149739214Y-132017510D01*
X149499616Y-132095360D01*
X149275151Y-132209732D01*
X149071350Y-132357801D01*
X149071345Y-132357805D01*
X148893205Y-132535945D01*
X148893201Y-132535950D01*
X148745132Y-132739751D01*
X148630760Y-132964216D01*
X148552910Y-133203814D01*
X148513500Y-133452638D01*
X148513500Y-133704561D01*
X148552910Y-133953385D01*
X148630760Y-134192983D01*
X148709413Y-134347347D01*
X148717605Y-134363425D01*
X148745132Y-134417448D01*
X148889818Y-134616592D01*
X148913298Y-134682398D01*
X148913500Y-134689477D01*
X148913500Y-140751574D01*
X148893815Y-140818613D01*
X148877181Y-140839255D01*
X141550455Y-148165981D01*
X141489132Y-148199466D01*
X141462774Y-148202300D01*
X137086402Y-148202300D01*
X137019363Y-148182615D01*
X136980286Y-148142451D01*
X136965271Y-148117614D01*
X136965268Y-148117610D01*
X136844988Y-147997330D01*
X136699406Y-147909322D01*
X136557419Y-147865078D01*
X136536996Y-147858714D01*
X136536994Y-147858713D01*
X136536992Y-147858713D01*
X136487578Y-147854223D01*
X136466416Y-147852300D01*
X134653184Y-147852300D01*
X134633945Y-147854048D01*
X134582607Y-147858713D01*
X134420193Y-147909322D01*
X134274611Y-147997330D01*
X134154330Y-148117611D01*
X134066321Y-148263196D01*
X134058988Y-148286729D01*
X134020251Y-148344876D01*
X133956225Y-148372850D01*
X133887240Y-148361768D01*
X133867718Y-148350156D01*
X133727357Y-148248179D01*
X133538015Y-148151703D01*
X133335924Y-148086041D01*
X133269800Y-148075568D01*
X133269800Y-148969788D01*
X133212793Y-148936875D01*
X133085626Y-148902800D01*
X132953974Y-148902800D01*
X132826807Y-148936875D01*
X132769800Y-148969788D01*
X132769800Y-148075568D01*
X132769799Y-148075568D01*
X132703675Y-148086041D01*
X132501584Y-148151703D01*
X132312242Y-148248179D01*
X132140340Y-148373072D01*
X132140335Y-148373076D01*
X131990076Y-148523335D01*
X131990072Y-148523340D01*
X131865179Y-148695242D01*
X131768704Y-148884582D01*
X131703042Y-149086670D01*
X131703042Y-149086673D01*
X131692569Y-149152800D01*
X126730853Y-149152800D01*
X126721824Y-149095793D01*
X126708921Y-149014324D01*
X126633504Y-148782215D01*
X126633502Y-148782212D01*
X126633502Y-148782210D01*
X126589189Y-148695242D01*
X126522706Y-148564761D01*
X126472882Y-148496184D01*
X126379260Y-148367323D01*
X126379256Y-148367318D01*
X126206681Y-148194743D01*
X126206676Y-148194739D01*
X126009242Y-148051296D01*
X126009241Y-148051295D01*
X126009239Y-148051294D01*
X125791785Y-147940496D01*
X125559676Y-147865079D01*
X125559674Y-147865078D01*
X125559672Y-147865078D01*
X125391369Y-147838421D01*
X125318627Y-147826900D01*
X125188225Y-147826900D01*
X125121186Y-147807215D01*
X125075431Y-147754411D01*
X125065487Y-147685253D01*
X125094512Y-147621697D01*
X125100544Y-147615219D01*
X127583018Y-145132744D01*
X127644339Y-145099261D01*
X127714031Y-145104245D01*
X127726989Y-145109941D01*
X127732394Y-145112695D01*
X127732397Y-145112696D01*
X127732396Y-145112696D01*
X127837221Y-145146755D01*
X127942049Y-145180815D01*
X128159778Y-145215300D01*
X128159779Y-145215300D01*
X128380221Y-145215300D01*
X128380222Y-145215300D01*
X128597951Y-145180815D01*
X128807606Y-145112695D01*
X129004022Y-145012615D01*
X129182365Y-144883042D01*
X129338242Y-144727165D01*
X129467815Y-144548822D01*
X129567895Y-144352406D01*
X129636015Y-144142751D01*
X129670500Y-143925022D01*
X129670500Y-143704578D01*
X129636015Y-143486849D01*
X129581947Y-143320441D01*
X129567896Y-143277196D01*
X129567895Y-143277193D01*
X129533062Y-143208832D01*
X129467815Y-143080778D01*
X129430282Y-143029118D01*
X129338247Y-142902441D01*
X129338243Y-142902436D01*
X129182363Y-142746556D01*
X129182358Y-142746552D01*
X129004025Y-142616987D01*
X129004024Y-142616986D01*
X129004022Y-142616985D01*
X128941096Y-142584922D01*
X128807606Y-142516904D01*
X128807603Y-142516903D01*
X128597952Y-142448785D01*
X128489086Y-142431542D01*
X128380222Y-142414300D01*
X128159778Y-142414300D01*
X128087201Y-142425795D01*
X127942047Y-142448785D01*
X127732396Y-142516903D01*
X127732393Y-142516904D01*
X127567772Y-142600785D01*
X127511477Y-142614300D01*
X127108714Y-142614300D01*
X126922081Y-142643859D01*
X126742363Y-142702254D01*
X126574000Y-142788040D01*
X126421123Y-142899112D01*
X124068781Y-145251455D01*
X124007458Y-145284940D01*
X123937766Y-145279956D01*
X123881833Y-145238084D01*
X123857416Y-145172620D01*
X123857100Y-145163774D01*
X123857100Y-136444800D01*
X127094638Y-136444800D01*
X127099548Y-136475802D01*
X127157914Y-136655437D01*
X127243670Y-136823740D01*
X127354685Y-136976541D01*
X127354689Y-136976546D01*
X127488253Y-137110110D01*
X127488258Y-137110114D01*
X127641059Y-137221129D01*
X127809362Y-137306885D01*
X127988997Y-137365251D01*
X128020000Y-137370162D01*
X128020000Y-137370161D01*
X128520000Y-137370161D01*
X128551002Y-137365251D01*
X128730637Y-137306885D01*
X128898940Y-137221129D01*
X129051741Y-137110114D01*
X129051746Y-137110110D01*
X129185310Y-136976546D01*
X129185314Y-136976541D01*
X129296329Y-136823740D01*
X129382085Y-136655437D01*
X129440451Y-136475802D01*
X129445362Y-136444800D01*
X128520000Y-136444800D01*
X128520000Y-137370161D01*
X128020000Y-137370161D01*
X128020000Y-136444800D01*
X127094638Y-136444800D01*
X123857100Y-136444800D01*
X123857100Y-136148722D01*
X127920000Y-136148722D01*
X127920000Y-136240878D01*
X127943852Y-136329895D01*
X127989930Y-136409705D01*
X128055095Y-136474870D01*
X128134905Y-136520948D01*
X128223922Y-136544800D01*
X128316078Y-136544800D01*
X128405095Y-136520948D01*
X128484905Y-136474870D01*
X128550070Y-136409705D01*
X128596148Y-136329895D01*
X128620000Y-136240878D01*
X128620000Y-136148722D01*
X128596148Y-136059705D01*
X128550070Y-135979895D01*
X128514975Y-135944800D01*
X128520000Y-135944800D01*
X129445362Y-135944800D01*
X129440451Y-135913797D01*
X129382085Y-135734162D01*
X129296329Y-135565859D01*
X129185314Y-135413058D01*
X129185310Y-135413053D01*
X129051746Y-135279489D01*
X129051741Y-135279485D01*
X128898940Y-135168470D01*
X128730635Y-135082713D01*
X128551004Y-135024349D01*
X128550995Y-135024347D01*
X128520000Y-135019437D01*
X128520000Y-135944800D01*
X128514975Y-135944800D01*
X128484905Y-135914730D01*
X128405095Y-135868652D01*
X128316078Y-135844800D01*
X128223922Y-135844800D01*
X128134905Y-135868652D01*
X128055095Y-135914730D01*
X127989930Y-135979895D01*
X127943852Y-136059705D01*
X127920000Y-136148722D01*
X123857100Y-136148722D01*
X123857100Y-135944800D01*
X127094638Y-135944800D01*
X128020000Y-135944800D01*
X128020000Y-135019437D01*
X128019999Y-135019437D01*
X127989004Y-135024347D01*
X127988995Y-135024349D01*
X127809364Y-135082713D01*
X127641059Y-135168470D01*
X127488258Y-135279485D01*
X127488253Y-135279489D01*
X127354689Y-135413053D01*
X127354685Y-135413058D01*
X127243670Y-135565859D01*
X127157914Y-135734162D01*
X127099548Y-135913797D01*
X127094638Y-135944800D01*
X123857100Y-135944800D01*
X123857100Y-133814313D01*
X123827540Y-133627681D01*
X123769145Y-133447963D01*
X123683359Y-133279600D01*
X123628298Y-133203815D01*
X123572290Y-133126726D01*
X121658219Y-131212655D01*
X121643515Y-131185727D01*
X121626923Y-131159909D01*
X121626031Y-131153708D01*
X121624734Y-131151332D01*
X121621900Y-131124974D01*
X121621900Y-122520955D01*
X121641585Y-122453916D01*
X121694389Y-122408161D01*
X121763547Y-122398217D01*
X121802194Y-122410470D01*
X121844425Y-122431988D01*
X121941189Y-122481293D01*
X121941196Y-122481296D01*
X122046021Y-122515355D01*
X122150849Y-122549415D01*
X122368578Y-122583900D01*
X122368579Y-122583900D01*
X122589021Y-122583900D01*
X122589022Y-122583900D01*
X122806751Y-122549415D01*
X123016406Y-122481295D01*
X123036574Y-122471019D01*
X123081329Y-122448215D01*
X123137624Y-122434700D01*
X123682774Y-122434700D01*
X123749813Y-122454385D01*
X123770455Y-122471019D01*
X124039961Y-122740525D01*
X124070211Y-122789888D01*
X124127305Y-122965606D01*
X124226765Y-123160806D01*
X124227387Y-123162025D01*
X124356952Y-123340358D01*
X124356956Y-123340363D01*
X124512836Y-123496243D01*
X124512841Y-123496247D01*
X124668392Y-123609260D01*
X124691178Y-123625815D01*
X124819575Y-123691237D01*
X124887593Y-123725895D01*
X124887599Y-123725897D01*
X125063310Y-123782988D01*
X125112674Y-123813238D01*
X125749094Y-124449657D01*
X125782579Y-124510980D01*
X125785413Y-124537338D01*
X125785413Y-128454080D01*
X125765728Y-128521119D01*
X125749094Y-128541761D01*
X125630444Y-128660410D01*
X125630443Y-128660411D01*
X125542435Y-128805993D01*
X125491826Y-128968407D01*
X125485413Y-129038986D01*
X125485413Y-129198291D01*
X125465728Y-129265330D01*
X125449094Y-129285972D01*
X124885913Y-129849153D01*
X124885913Y-129842939D01*
X124858654Y-129741206D01*
X124805993Y-129649994D01*
X124731519Y-129575520D01*
X124640307Y-129522859D01*
X124538574Y-129495600D01*
X124532359Y-129495600D01*
X125211835Y-128816124D01*
X125211834Y-128816123D01*
X125167272Y-128783747D01*
X125167263Y-128783741D01*
X124984944Y-128690844D01*
X124790330Y-128627609D01*
X124588230Y-128595600D01*
X124383596Y-128595600D01*
X124181495Y-128627609D01*
X123986881Y-128690844D01*
X123804557Y-128783743D01*
X123759990Y-128816123D01*
X123759990Y-128816124D01*
X124439467Y-129495600D01*
X124433252Y-129495600D01*
X124331519Y-129522859D01*
X124240307Y-129575520D01*
X124165833Y-129649994D01*
X124113172Y-129741206D01*
X124085913Y-129842939D01*
X124085913Y-129849153D01*
X123406437Y-129169677D01*
X123406436Y-129169677D01*
X123374056Y-129214244D01*
X123281157Y-129396568D01*
X123217922Y-129591182D01*
X123185913Y-129793282D01*
X123185913Y-129997917D01*
X123217922Y-130200017D01*
X123281157Y-130394631D01*
X123374054Y-130576950D01*
X123374060Y-130576959D01*
X123406436Y-130621521D01*
X123406437Y-130621522D01*
X124085913Y-129942046D01*
X124085913Y-129948261D01*
X124113172Y-130049994D01*
X124165833Y-130141206D01*
X124240307Y-130215680D01*
X124331519Y-130268341D01*
X124433252Y-130295600D01*
X124439466Y-130295600D01*
X123759989Y-130975074D01*
X123804563Y-131007459D01*
X123986881Y-131100355D01*
X124181495Y-131163590D01*
X124383596Y-131195600D01*
X124588230Y-131195600D01*
X124790330Y-131163590D01*
X124984944Y-131100355D01*
X125167262Y-131007459D01*
X125211834Y-130975074D01*
X124532360Y-130295600D01*
X124538574Y-130295600D01*
X124640307Y-130268341D01*
X124731519Y-130215680D01*
X124805993Y-130141206D01*
X124858654Y-130049994D01*
X124885913Y-129948261D01*
X124885913Y-129942046D01*
X125449094Y-130505227D01*
X125482579Y-130566550D01*
X125485413Y-130592908D01*
X125485413Y-130752213D01*
X125491826Y-130822792D01*
X125491826Y-130822794D01*
X125491827Y-130822796D01*
X125542435Y-130985206D01*
X125555887Y-131007459D01*
X125630443Y-131130788D01*
X125750724Y-131251069D01*
X125750726Y-131251070D01*
X125750728Y-131251072D01*
X125896307Y-131339078D01*
X126058717Y-131389686D01*
X126129297Y-131396100D01*
X126129300Y-131396100D01*
X127842526Y-131396100D01*
X127842529Y-131396100D01*
X127913109Y-131389686D01*
X128075519Y-131339078D01*
X128221098Y-131251072D01*
X128276570Y-131195600D01*
X128339752Y-131132419D01*
X128401075Y-131098934D01*
X128427433Y-131096100D01*
X130526900Y-131096100D01*
X130593939Y-131115785D01*
X130639694Y-131168589D01*
X130650900Y-131220100D01*
X130650900Y-132870876D01*
X130637385Y-132927171D01*
X130553504Y-133091793D01*
X130553503Y-133091796D01*
X130485385Y-133301447D01*
X130450900Y-133519178D01*
X130450900Y-133739621D01*
X130485385Y-133957352D01*
X130553503Y-134167003D01*
X130553504Y-134167006D01*
X130653587Y-134363425D01*
X130783152Y-134541758D01*
X130783156Y-134541763D01*
X130939036Y-134697643D01*
X130939041Y-134697647D01*
X131051153Y-134779100D01*
X131117378Y-134827215D01*
X131245775Y-134892637D01*
X131313793Y-134927295D01*
X131313796Y-134927296D01*
X131418621Y-134961355D01*
X131523449Y-134995415D01*
X131741178Y-135029900D01*
X131741179Y-135029900D01*
X131961621Y-135029900D01*
X131961622Y-135029900D01*
X132179351Y-134995415D01*
X132389006Y-134927295D01*
X132585422Y-134827215D01*
X132763765Y-134697642D01*
X132919642Y-134541765D01*
X133049215Y-134363422D01*
X133149295Y-134167006D01*
X133217415Y-133957351D01*
X133251900Y-133739622D01*
X133251900Y-133519178D01*
X133217415Y-133301449D01*
X133149295Y-133091794D01*
X133149295Y-133091793D01*
X133065415Y-132927171D01*
X133051900Y-132870876D01*
X133051900Y-130654122D01*
X133065416Y-130597826D01*
X133149293Y-130433211D01*
X133149296Y-130433203D01*
X133151752Y-130425642D01*
X133217415Y-130223551D01*
X133229761Y-130145600D01*
X138296038Y-130145600D01*
X138300948Y-130176602D01*
X138359314Y-130356237D01*
X138445070Y-130524540D01*
X138556085Y-130677341D01*
X138556089Y-130677346D01*
X138689653Y-130810910D01*
X138689658Y-130810914D01*
X138842459Y-130921929D01*
X139010762Y-131007685D01*
X139190397Y-131066051D01*
X139221400Y-131070962D01*
X139221400Y-131070961D01*
X139721400Y-131070961D01*
X139752402Y-131066051D01*
X139932037Y-131007685D01*
X140100340Y-130921929D01*
X140253141Y-130810914D01*
X140253146Y-130810910D01*
X140386710Y-130677346D01*
X140386714Y-130677341D01*
X140497729Y-130524540D01*
X140583485Y-130356237D01*
X140641851Y-130176602D01*
X140646762Y-130145600D01*
X139721400Y-130145600D01*
X139721400Y-131070961D01*
X139221400Y-131070961D01*
X139221400Y-130145600D01*
X138296038Y-130145600D01*
X133229761Y-130145600D01*
X133251900Y-130005822D01*
X133251900Y-129849522D01*
X139121400Y-129849522D01*
X139121400Y-129941678D01*
X139145252Y-130030695D01*
X139191330Y-130110505D01*
X139256495Y-130175670D01*
X139336305Y-130221748D01*
X139425322Y-130245600D01*
X139517478Y-130245600D01*
X139606495Y-130221748D01*
X139686305Y-130175670D01*
X139751470Y-130110505D01*
X139797548Y-130030695D01*
X139821400Y-129941678D01*
X139821400Y-129849522D01*
X139797548Y-129760505D01*
X139751470Y-129680695D01*
X139716375Y-129645600D01*
X139721400Y-129645600D01*
X140646762Y-129645600D01*
X140641851Y-129614597D01*
X140583485Y-129434962D01*
X140497729Y-129266659D01*
X140386714Y-129113858D01*
X140386710Y-129113853D01*
X140253146Y-128980289D01*
X140253141Y-128980285D01*
X140100340Y-128869270D01*
X139932035Y-128783513D01*
X139752404Y-128725149D01*
X139752395Y-128725147D01*
X139721400Y-128720237D01*
X139721400Y-129645600D01*
X139716375Y-129645600D01*
X139686305Y-129615530D01*
X139606495Y-129569452D01*
X139517478Y-129545600D01*
X139425322Y-129545600D01*
X139336305Y-129569452D01*
X139256495Y-129615530D01*
X139191330Y-129680695D01*
X139145252Y-129760505D01*
X139121400Y-129849522D01*
X133251900Y-129849522D01*
X133251900Y-129785378D01*
X133249446Y-129769887D01*
X133238704Y-129702061D01*
X133229761Y-129645600D01*
X138296038Y-129645600D01*
X139221400Y-129645600D01*
X139221400Y-128720237D01*
X139221399Y-128720237D01*
X139190404Y-128725147D01*
X139190395Y-128725149D01*
X139010764Y-128783513D01*
X138842459Y-128869270D01*
X138689658Y-128980285D01*
X138689653Y-128980289D01*
X138556089Y-129113853D01*
X138556085Y-129113858D01*
X138445070Y-129266659D01*
X138359314Y-129434962D01*
X138300948Y-129614597D01*
X138296038Y-129645600D01*
X133229761Y-129645600D01*
X133217415Y-129567649D01*
X133149295Y-129357994D01*
X133149295Y-129357993D01*
X133102080Y-129265330D01*
X133049215Y-129161578D01*
X133014541Y-129113853D01*
X132919647Y-128983241D01*
X132919643Y-128983236D01*
X132763763Y-128827356D01*
X132763758Y-128827352D01*
X132585425Y-128697787D01*
X132585424Y-128697786D01*
X132585422Y-128697785D01*
X132508873Y-128658781D01*
X132389006Y-128597704D01*
X132389003Y-128597703D01*
X132179352Y-128529585D01*
X132070486Y-128512342D01*
X131961622Y-128495100D01*
X131741178Y-128495100D01*
X131668601Y-128506595D01*
X131523447Y-128529585D01*
X131313796Y-128597703D01*
X131313793Y-128597704D01*
X131149172Y-128681585D01*
X131092877Y-128695100D01*
X128427433Y-128695100D01*
X128397992Y-128686455D01*
X128368006Y-128679932D01*
X128362990Y-128676177D01*
X128360394Y-128675415D01*
X128339752Y-128658781D01*
X128222732Y-128541761D01*
X128189247Y-128480438D01*
X128186413Y-128454080D01*
X128186413Y-126904802D01*
X128206098Y-126837763D01*
X128258902Y-126792008D01*
X128328060Y-126782064D01*
X128391616Y-126811089D01*
X128398094Y-126817121D01*
X128455490Y-126874517D01*
X128646567Y-127013343D01*
X128745991Y-127064002D01*
X128857003Y-127120566D01*
X128857005Y-127120566D01*
X128857008Y-127120568D01*
X128977412Y-127159689D01*
X129081631Y-127193553D01*
X129314903Y-127230500D01*
X129314908Y-127230500D01*
X129551097Y-127230500D01*
X129784368Y-127193553D01*
X130008992Y-127120568D01*
X130219433Y-127013343D01*
X130410510Y-126874517D01*
X130577517Y-126707510D01*
X130582682Y-126700401D01*
X130638012Y-126657735D01*
X130707625Y-126651756D01*
X130769420Y-126684362D01*
X130783318Y-126700401D01*
X130788483Y-126707510D01*
X130955490Y-126874517D01*
X131146567Y-127013343D01*
X131245991Y-127064002D01*
X131357003Y-127120566D01*
X131357005Y-127120566D01*
X131357008Y-127120568D01*
X131477412Y-127159689D01*
X131581631Y-127193553D01*
X131814903Y-127230500D01*
X131814908Y-127230500D01*
X132051097Y-127230500D01*
X132284368Y-127193553D01*
X132508992Y-127120568D01*
X132719433Y-127013343D01*
X132910510Y-126874517D01*
X133077517Y-126707510D01*
X133216343Y-126516433D01*
X133323568Y-126305992D01*
X133396553Y-126081368D01*
X133406212Y-126020382D01*
X133433500Y-125848097D01*
X133433500Y-125611902D01*
X133412005Y-125476197D01*
X133396553Y-125378632D01*
X133396552Y-125378628D01*
X133396552Y-125378627D01*
X133364524Y-125280055D01*
X133323566Y-125154003D01*
X133232939Y-124976139D01*
X133216343Y-124943567D01*
X133157182Y-124862138D01*
X133133702Y-124796332D01*
X133133500Y-124789253D01*
X133133500Y-124088825D01*
X133153185Y-124021786D01*
X133169815Y-124001148D01*
X133357727Y-123813235D01*
X133407082Y-123782989D01*
X133582806Y-123725895D01*
X133747428Y-123642015D01*
X133803723Y-123628500D01*
X140148770Y-123628500D01*
X140168855Y-123634397D01*
X140189764Y-123635472D01*
X140211756Y-123646994D01*
X140215809Y-123648185D01*
X140221074Y-123651762D01*
X140221345Y-123651956D01*
X140386767Y-123772143D01*
X140393756Y-123775704D01*
X140401391Y-123781184D01*
X140417334Y-123801614D01*
X140436175Y-123819407D01*
X140438479Y-123828710D01*
X140444376Y-123836267D01*
X140446743Y-123862075D01*
X140452973Y-123887227D01*
X140449882Y-123896297D01*
X140450758Y-123905844D01*
X140438796Y-123928834D01*
X140430439Y-123953363D01*
X140421111Y-123962824D01*
X140418509Y-123967827D01*
X140413165Y-123970885D01*
X140401973Y-123982239D01*
X140326313Y-124037210D01*
X140326304Y-124037217D01*
X140181617Y-124181904D01*
X140181617Y-124181905D01*
X140061340Y-124347450D01*
X139968444Y-124529770D01*
X139905209Y-124724386D01*
X139896591Y-124778800D01*
X140857514Y-124778800D01*
X140853120Y-124783194D01*
X140800459Y-124874406D01*
X140773200Y-124976139D01*
X140773200Y-125081461D01*
X140800459Y-125183194D01*
X140853120Y-125274406D01*
X140857514Y-125278800D01*
X139896591Y-125278800D01*
X139905209Y-125333213D01*
X139968444Y-125527829D01*
X140061340Y-125710149D01*
X140181617Y-125875694D01*
X140181617Y-125875695D01*
X140326304Y-126020382D01*
X140491850Y-126140659D01*
X140674168Y-126233554D01*
X140868778Y-126296788D01*
X140923200Y-126305407D01*
X140923200Y-125344486D01*
X140927594Y-125348880D01*
X141018806Y-125401541D01*
X141120539Y-125428800D01*
X141225861Y-125428800D01*
X141327594Y-125401541D01*
X141418806Y-125348880D01*
X141423200Y-125344486D01*
X141423200Y-126305406D01*
X141477621Y-126296788D01*
X141672231Y-126233554D01*
X141854549Y-126140659D01*
X142020094Y-126020382D01*
X142020095Y-126020382D01*
X142164782Y-125875695D01*
X142164782Y-125875694D01*
X142285059Y-125710149D01*
X142377955Y-125527829D01*
X142441190Y-125333213D01*
X142449809Y-125278800D01*
X141488886Y-125278800D01*
X141493280Y-125274406D01*
X141545941Y-125183194D01*
X141573200Y-125081461D01*
X141573200Y-124976139D01*
X141545941Y-124874406D01*
X141493280Y-124783194D01*
X141488886Y-124778800D01*
X142449809Y-124778800D01*
X142441190Y-124724386D01*
X142377955Y-124529770D01*
X142285059Y-124347450D01*
X142164782Y-124181905D01*
X142164782Y-124181904D01*
X142020095Y-124037217D01*
X141944426Y-123982240D01*
X141901761Y-123926910D01*
X141895782Y-123857296D01*
X141928388Y-123795501D01*
X141955833Y-123775263D01*
X141955481Y-123774688D01*
X141959626Y-123772147D01*
X141959627Y-123772145D01*
X141959633Y-123772143D01*
X142150710Y-123633317D01*
X142317717Y-123466310D01*
X142456543Y-123275233D01*
X142563768Y-123064792D01*
X142636753Y-122840168D01*
X142647879Y-122769921D01*
X142673700Y-122606897D01*
X142673700Y-122370702D01*
X142636753Y-122137431D01*
X142563766Y-121912803D01*
X142456542Y-121702366D01*
X142445854Y-121687655D01*
X142317717Y-121511290D01*
X142150710Y-121344283D01*
X142116072Y-121319117D01*
X142073407Y-121263789D01*
X142067428Y-121194175D01*
X142100033Y-121132380D01*
X142116073Y-121118482D01*
X142150710Y-121093317D01*
X142317717Y-120926310D01*
X142456543Y-120735233D01*
X142563768Y-120524792D01*
X142636753Y-120300168D01*
X142641331Y-120271261D01*
X142673700Y-120066897D01*
X142673700Y-119830702D01*
X142636753Y-119597431D01*
X142563766Y-119372803D01*
X142456542Y-119162366D01*
X142320203Y-118974712D01*
X142296725Y-118908910D01*
X142312550Y-118840856D01*
X142356371Y-118795715D01*
X142408385Y-118764272D01*
X142528672Y-118643985D01*
X142616678Y-118498406D01*
X142667286Y-118335996D01*
X142673700Y-118265416D01*
X142673700Y-116552184D01*
X142667286Y-116481604D01*
X142616678Y-116319194D01*
X142528672Y-116173615D01*
X142528670Y-116173613D01*
X142528669Y-116173611D01*
X142408388Y-116053330D01*
X142404325Y-116050874D01*
X142262806Y-115965322D01*
X142100396Y-115914714D01*
X142100394Y-115914713D01*
X142100392Y-115914713D01*
X142050978Y-115910223D01*
X142029816Y-115908300D01*
X140316584Y-115908300D01*
X140297345Y-115910048D01*
X140246007Y-115914713D01*
X140083593Y-115965322D01*
X139938011Y-116053330D01*
X139938010Y-116053331D01*
X139819361Y-116171981D01*
X139758038Y-116205466D01*
X139731680Y-116208300D01*
X138709226Y-116208300D01*
X138642187Y-116188615D01*
X138621545Y-116171981D01*
X135018619Y-112569055D01*
X134985134Y-112507732D01*
X134982300Y-112481374D01*
X134982300Y-112149279D01*
X135001985Y-112082240D01*
X135054789Y-112036485D01*
X135123947Y-112026541D01*
X135187503Y-112055566D01*
X135224232Y-112110963D01*
X135227105Y-112119807D01*
X135242122Y-112149279D01*
X135321084Y-112304249D01*
X135327187Y-112316225D01*
X135456752Y-112494558D01*
X135456756Y-112494563D01*
X135612636Y-112650443D01*
X135612641Y-112650447D01*
X135754702Y-112753659D01*
X135790978Y-112780015D01*
X135919375Y-112845437D01*
X135987393Y-112880095D01*
X135987396Y-112880096D01*
X136092221Y-112914155D01*
X136197049Y-112948215D01*
X136414778Y-112982700D01*
X136414779Y-112982700D01*
X136635221Y-112982700D01*
X136635222Y-112982700D01*
X136852951Y-112948215D01*
X137062606Y-112880095D01*
X137090310Y-112865979D01*
X137227228Y-112796215D01*
X137283523Y-112782700D01*
X139158221Y-112782700D01*
X139225260Y-112802385D01*
X139231097Y-112806375D01*
X139319967Y-112870943D01*
X139419391Y-112921602D01*
X139530403Y-112978166D01*
X139530405Y-112978166D01*
X139530408Y-112978168D01*
X139650812Y-113017289D01*
X139755031Y-113051153D01*
X139988303Y-113088100D01*
X139988308Y-113088100D01*
X140224497Y-113088100D01*
X140457768Y-113051153D01*
X140682392Y-112978168D01*
X140892833Y-112870943D01*
X141083910Y-112732117D01*
X141250917Y-112565110D01*
X141389743Y-112374033D01*
X141496968Y-112163592D01*
X141569953Y-111938968D01*
X141574517Y-111910151D01*
X141606900Y-111705697D01*
X141606900Y-111469502D01*
X141569953Y-111236231D01*
X141534265Y-111126397D01*
X141496968Y-111011608D01*
X141496966Y-111011605D01*
X141496966Y-111011603D01*
X141430923Y-110881988D01*
X141389743Y-110801167D01*
X141250917Y-110610090D01*
X141083910Y-110443083D01*
X140967474Y-110358487D01*
X140892835Y-110304258D01*
X140889598Y-110302275D01*
X140842722Y-110250464D01*
X140830768Y-110186817D01*
X140832321Y-110167073D01*
X140152847Y-109487600D01*
X140159061Y-109487600D01*
X140260794Y-109460341D01*
X140352006Y-109407680D01*
X140426480Y-109333206D01*
X140479141Y-109241994D01*
X140506400Y-109140261D01*
X140506400Y-109134047D01*
X141185874Y-109813521D01*
X141218259Y-109768949D01*
X141311155Y-109586631D01*
X141374390Y-109392017D01*
X141406400Y-109189917D01*
X141406400Y-108985282D01*
X141374390Y-108783182D01*
X141311155Y-108588568D01*
X141218259Y-108406250D01*
X141185874Y-108361677D01*
X141185874Y-108361676D01*
X140506400Y-109041151D01*
X140506400Y-109034939D01*
X140479141Y-108933206D01*
X140426480Y-108841994D01*
X140352006Y-108767520D01*
X140260794Y-108714859D01*
X140159061Y-108687600D01*
X140152846Y-108687600D01*
X140832322Y-108008124D01*
X140832321Y-108008123D01*
X140787759Y-107975747D01*
X140787750Y-107975741D01*
X140605431Y-107882844D01*
X140410817Y-107819609D01*
X140208717Y-107787600D01*
X140004083Y-107787600D01*
X139801982Y-107819609D01*
X139607368Y-107882844D01*
X139425044Y-107975743D01*
X139380477Y-108008123D01*
X139380477Y-108008124D01*
X140059954Y-108687600D01*
X140053739Y-108687600D01*
X139952006Y-108714859D01*
X139860794Y-108767520D01*
X139786320Y-108841994D01*
X139733659Y-108933206D01*
X139706400Y-109034939D01*
X139706400Y-109041153D01*
X139026924Y-108361677D01*
X139026923Y-108361677D01*
X138994543Y-108406244D01*
X138901644Y-108588568D01*
X138838409Y-108783182D01*
X138806400Y-108985282D01*
X138806400Y-109189917D01*
X138838409Y-109392017D01*
X138901644Y-109586631D01*
X138994541Y-109768950D01*
X138994547Y-109768959D01*
X139026923Y-109813521D01*
X139026924Y-109813522D01*
X139706400Y-109134046D01*
X139706400Y-109140261D01*
X139733659Y-109241994D01*
X139786320Y-109333206D01*
X139860794Y-109407680D01*
X139952006Y-109460341D01*
X140053739Y-109487600D01*
X140059953Y-109487600D01*
X139380476Y-110167074D01*
X139382030Y-110186818D01*
X139379812Y-110197372D01*
X139381886Y-110207956D01*
X139372754Y-110230967D01*
X139367665Y-110255196D01*
X139359414Y-110264587D01*
X139356116Y-110272900D01*
X139337571Y-110289451D01*
X139330647Y-110297333D01*
X139323492Y-110302460D01*
X139319967Y-110304257D01*
X139245683Y-110358226D01*
X139245321Y-110358487D01*
X139212760Y-110369867D01*
X139180165Y-110381498D01*
X139179426Y-110381519D01*
X139179364Y-110381541D01*
X139179288Y-110381523D01*
X139173086Y-110381700D01*
X137283523Y-110381700D01*
X137227228Y-110368185D01*
X137062606Y-110284304D01*
X137062603Y-110284303D01*
X136852952Y-110216185D01*
X136732024Y-110197032D01*
X136635222Y-110181700D01*
X136414778Y-110181700D01*
X136342201Y-110193195D01*
X136197047Y-110216185D01*
X135987396Y-110284303D01*
X135987393Y-110284304D01*
X135790974Y-110384387D01*
X135612641Y-110513952D01*
X135612636Y-110513956D01*
X135456756Y-110669836D01*
X135456752Y-110669841D01*
X135327187Y-110848174D01*
X135227105Y-111044593D01*
X135224231Y-111053439D01*
X135184793Y-111111114D01*
X135120434Y-111138312D01*
X135051588Y-111126397D01*
X135000112Y-111079153D01*
X134982300Y-111015120D01*
X134982300Y-109600700D01*
X135001985Y-109533661D01*
X135054789Y-109487906D01*
X135106300Y-109476700D01*
X135553613Y-109476700D01*
X135553616Y-109476700D01*
X135624196Y-109470286D01*
X135786606Y-109419678D01*
X135932185Y-109331672D01*
X136000839Y-109263017D01*
X136062160Y-109229534D01*
X136088519Y-109226700D01*
X136390886Y-109226700D01*
X136577518Y-109197140D01*
X136617038Y-109184299D01*
X136757232Y-109138747D01*
X136925599Y-109052960D01*
X137078474Y-108941890D01*
X139752090Y-106268274D01*
X139863160Y-106115399D01*
X139948947Y-105947032D01*
X140007340Y-105767318D01*
X140010574Y-105746900D01*
X140025068Y-105655388D01*
X140036900Y-105580686D01*
X140036900Y-105325881D01*
X140056585Y-105258842D01*
X140060574Y-105253006D01*
X140076979Y-105230428D01*
X140180631Y-105026999D01*
X140251184Y-104809860D01*
X140253348Y-104796196D01*
X140286900Y-104584362D01*
X140286900Y-104356037D01*
X140251184Y-104130539D01*
X140198895Y-103969612D01*
X140180631Y-103913401D01*
X140180629Y-103913398D01*
X140180629Y-103913396D01*
X140105204Y-103765367D01*
X140076979Y-103709972D01*
X140076977Y-103709969D01*
X140060581Y-103687401D01*
X140037102Y-103621595D01*
X140036900Y-103614517D01*
X140036900Y-102395343D01*
X140007340Y-102208711D01*
X139980246Y-102125327D01*
X139948947Y-102028998D01*
X139948945Y-102028995D01*
X139948945Y-102028993D01*
X139863159Y-101860630D01*
X139842723Y-101832502D01*
X139752090Y-101707756D01*
X136584244Y-98539910D01*
X136431369Y-98428840D01*
X136405121Y-98415466D01*
X136263006Y-98343054D01*
X136083288Y-98284659D01*
X135896656Y-98255100D01*
X135896651Y-98255100D01*
X135611547Y-98255100D01*
X135544508Y-98235415D01*
X135538662Y-98231418D01*
X135457236Y-98172259D01*
X135457235Y-98172258D01*
X135457233Y-98172257D01*
X135391515Y-98138772D01*
X135246796Y-98065033D01*
X135022168Y-97992046D01*
X134788897Y-97955100D01*
X134788892Y-97955100D01*
X134552708Y-97955100D01*
X134552703Y-97955100D01*
X134319431Y-97992046D01*
X134094803Y-98065033D01*
X133884366Y-98172257D01*
X133802939Y-98231418D01*
X133693290Y-98311083D01*
X133693288Y-98311085D01*
X133693287Y-98311085D01*
X133622392Y-98381981D01*
X133561069Y-98415466D01*
X133534711Y-98418300D01*
X128947740Y-98418300D01*
X128880701Y-98398615D01*
X128834946Y-98345811D01*
X128825002Y-98276653D01*
X128829809Y-98255983D01*
X128899414Y-98041754D01*
X128899413Y-98041754D01*
X128899415Y-98041751D01*
X128933900Y-97824022D01*
X128933900Y-97603578D01*
X128927166Y-97561059D01*
X128917624Y-97500812D01*
X128909191Y-97447572D01*
X128899415Y-97385849D01*
X128831295Y-97176194D01*
X128831295Y-97176193D01*
X128796637Y-97108175D01*
X128731215Y-96979778D01*
X128708295Y-96948231D01*
X128601647Y-96801441D01*
X128601643Y-96801436D01*
X128445763Y-96645556D01*
X128445758Y-96645552D01*
X128267425Y-96515987D01*
X128267424Y-96515986D01*
X128267422Y-96515985D01*
X128142829Y-96452501D01*
X128071006Y-96415904D01*
X128071003Y-96415903D01*
X127861352Y-96347785D01*
X127733157Y-96327481D01*
X127643622Y-96313300D01*
X127423178Y-96313300D01*
X127277097Y-96336436D01*
X127207804Y-96327481D01*
X127154352Y-96282485D01*
X127133713Y-96215733D01*
X127133700Y-96213963D01*
X127133700Y-91615900D01*
X127153385Y-91548861D01*
X127206189Y-91503106D01*
X127257700Y-91491900D01*
X127503026Y-91491900D01*
X127503027Y-91491900D01*
X127744076Y-91453721D01*
X127976185Y-91378304D01*
X128193639Y-91267506D01*
X128391083Y-91124055D01*
X128563655Y-90951483D01*
X128707106Y-90754039D01*
X128817904Y-90536585D01*
X128893321Y-90304476D01*
X128931500Y-90063427D01*
X128931500Y-89819373D01*
X128893321Y-89578324D01*
X128817904Y-89346215D01*
X128707106Y-89128761D01*
X128656799Y-89059519D01*
X128560792Y-88927375D01*
X128562267Y-88926302D01*
X128536891Y-88869671D01*
X128547328Y-88800585D01*
X128593459Y-88748109D01*
X128659752Y-88728900D01*
X131449974Y-88728900D01*
X131517013Y-88748585D01*
G37*
%TD.AperFunction*%
%TD*%
M02*
